<svg width="24" height="24" viewBox="0 0 24 24" fill="none" xmlns="http://www.w3.org/2000/svg">
<g id="icon ">
<path id="Vector" d="M6 17.5H2V11.5C2 10.9477 2.44772 10.5 3 10.5H5C5.55228 10.5 6 10.9477 6 11.5V17.5ZM6 17.5V13.5H18V17.5M6 17.5H18M18 17.5V11.5C18 10.9477 18.4477 10.5 19 10.5H21C21.5523 10.5 22 10.9477 22 11.5V17.5H18ZM4 10V6C4 4.89543 4.89543 4 6 4H18C19.1046 4 20 4.89543 20 6V10M4 18V20M20 18V20" stroke="white" stroke-opacity="0.5" stroke-width="2" stroke-linecap="round" stroke-linejoin="round"/>
</g>
</svg>
