<svg width="40" height="40" viewBox="0 0 40 40" fill="none" xmlns="http://www.w3.org/2000/svg">
<g id="icon">
<path id="Vector" d="M32.1403 13.492C31.5789 12.9306 30.6667 12.9306 30.1053 13.492C29.4035 14.1937 23.2281 20.6499 23.2281 25.7727C23.2281 30.9657 26.5263 34.7551 31.0877 34.7551C35.6491 34.7551 38.9474 30.9657 38.9474 25.7727C38.9474 20.6499 32.8421 14.1937 32.1403 13.492Z" fill="white"/>
<path id="Vector_2" d="M13.1228 4.64981C12.5614 4.08841 11.6491 4.08841 11.0877 4.64981C10.6667 5.07087 1.05264 14.9656 1.05264 22.4744C1.05264 29.913 5.61405 35.106 12.0702 35.106C18.5263 35.106 23.0877 29.913 23.0877 22.4744C23.0877 14.9656 13.4737 5.07087 13.1228 4.64981ZM12.0474 29.348C11.946 29.9566 11.3456 30.3582 10.7686 30.1397C9.26832 29.5715 8.10982 28.6413 7.36843 27.3867C6.06186 25.1253 6.33868 22.4321 6.62693 21.0078C6.74027 20.4478 7.3103 20.142 7.85966 20.2989C8.3983 20.4528 8.71084 21.0227 8.6122 21.5741C8.40214 22.7485 8.24283 24.7355 9.12282 26.2638C9.60836 27.0731 10.3013 27.6749 11.2653 28.0694C11.7824 28.281 12.1393 28.7968 12.0474 29.348Z" fill="white"/>
</g>
</svg>
