<svg width="32" height="32" viewBox="0 0 32 32" fill="none" xmlns="http://www.w3.org/2000/svg">
<g id="icon" clip-path="url(#clip0_166_1185)">
<g id="Vector">
<mask id="path-1-outside-1_166_1185" maskUnits="userSpaceOnUse" x="0.659424" y="-1" width="30" height="33" fill="black">
<rect fill="white" x="0.659424" y="-1" width="30" height="33"/>
<path d="M29.7446 17.3595C29.6248 17.1654 29.4338 17.026 29.2125 16.9711C28.9912 16.9162 28.7572 16.9501 28.5606 17.0655L24.3769 19.5153L17.7552 15.7618L24.3781 12.0072L28.5025 14.3455C28.7009 14.4572 28.9349 14.4872 29.155 14.4292C29.3752 14.3713 29.5641 14.2299 29.6818 14.035C29.7383 13.9385 29.775 13.8317 29.7897 13.7209C29.8044 13.61 29.7968 13.4973 29.7673 13.3894C29.7378 13.2816 29.6871 13.1807 29.618 13.0927C29.549 13.0047 29.4631 12.9314 29.3653 12.8771L26.1037 11.0282L28.9221 9.43057C29.0196 9.37616 29.1052 9.30285 29.174 9.21491C29.2429 9.12697 29.2934 9.02618 29.3228 8.91845C29.3521 8.81072 29.3597 8.69822 29.345 8.58753C29.3304 8.47684 29.2937 8.37019 29.2373 8.27383C29.1207 8.07781 28.9318 7.93543 28.7112 7.87735C28.4906 7.81927 28.2561 7.85014 28.0581 7.96331L25.2255 9.56924L25.1721 5.73161C25.1662 5.50495 25.0707 5.28987 24.9066 5.13348C24.7424 4.9771 24.523 4.89214 24.2963 4.89724C24.1841 4.8977 24.0731 4.92028 23.9697 4.96367C23.8663 5.00705 23.7724 5.07041 23.6935 5.1501C23.6146 5.2298 23.5521 5.32427 23.5098 5.42812C23.4674 5.53197 23.4459 5.64315 23.4465 5.75531L23.5141 10.5387L16.8178 14.3361V6.63235L20.9422 4.29279C21.0401 4.23859 21.1261 4.16537 21.1953 4.07743C21.2644 3.98949 21.3153 3.88861 21.3449 3.78072C21.3745 3.67284 21.3822 3.56012 21.3676 3.44921C21.353 3.33829 21.3163 3.23142 21.2598 3.13487C21.1428 2.93925 20.9537 2.79737 20.7332 2.73974C20.5127 2.68212 20.2783 2.71335 20.0806 2.82672L16.8189 4.67561V0.84746C16.818 0.735041 16.7949 0.623909 16.751 0.520434C16.707 0.416959 16.6431 0.323174 16.5628 0.244453C16.4825 0.165732 16.3875 0.103623 16.2832 0.0616842C16.1789 0.0197455 16.0674 -0.00119832 15.9549 5.29314e-05C15.7285 -0.00184204 15.5106 0.0862137 15.349 0.244879C15.1875 0.403545 15.0955 0.619847 15.0933 0.846275V4.69102L11.6824 2.81842C11.4828 2.70881 11.2483 2.68167 11.029 2.74281C10.8097 2.80395 10.6231 2.9485 10.509 3.14553C10.454 3.24287 10.4188 3.3502 10.4057 3.46126C10.3926 3.57232 10.4018 3.68488 10.4327 3.79236C10.4636 3.89984 10.5156 4.00008 10.5857 4.08722C10.6558 4.17437 10.7425 4.24667 10.8409 4.2999L15.0933 6.63353V14.2507L8.27258 10.3858V5.70672C8.27149 5.5945 8.24831 5.48359 8.20437 5.38033C8.16042 5.27707 8.09656 5.18348 8.01644 5.1049C7.93632 5.02632 7.8415 4.96429 7.73741 4.92236C7.63331 4.88042 7.52198 4.8594 7.40976 4.8605C7.29754 4.8594 7.18621 4.88042 7.08211 4.92236C6.97802 4.96429 6.8832 5.02632 6.80308 5.1049C6.72296 5.18348 6.6591 5.27707 6.61516 5.38033C6.57121 5.48359 6.54803 5.5945 6.54695 5.70672V9.40568L2.95465 7.36835C2.75655 7.25549 2.5221 7.22479 2.30162 7.28285C2.08115 7.3409 1.89222 7.48308 1.77539 7.67887C1.71862 7.77523 1.68172 7.88199 1.66686 7.99284C1.65199 8.10369 1.65947 8.21639 1.68885 8.32431C1.71823 8.43222 1.76892 8.53316 1.83793 8.62118C1.90694 8.7092 1.99286 8.78251 2.09065 8.83679L5.69954 10.8824L2.34309 12.8475C2.24657 12.9035 2.16215 12.9782 2.09476 13.0671C2.02737 13.1561 1.97835 13.2576 1.95056 13.3657C1.92276 13.4738 1.91675 13.5863 1.93286 13.6967C1.94898 13.8072 1.9869 13.9133 2.04443 14.0089C2.12191 14.136 2.23096 14.2409 2.36096 14.3134C2.49097 14.3859 2.63751 14.4235 2.78635 14.4226C2.94139 14.4229 3.09366 14.3815 3.22724 14.3029L7.41213 11.8519L14.304 15.7606L7.41095 19.6694L3.2865 17.3298C3.08854 17.2169 2.8542 17.186 2.63374 17.2438C2.41328 17.3017 2.22427 17.4436 2.10724 17.6392C2.05064 17.7356 2.01386 17.8423 1.99909 17.9531C1.98431 18.0639 1.99183 18.1766 2.0212 18.2845C2.05057 18.3923 2.1012 18.4933 2.17011 18.5813C2.23902 18.6693 2.32484 18.7427 2.4225 18.7971L5.68413 20.646L2.76502 22.3041C2.66731 22.3583 2.58142 22.4314 2.51237 22.5193C2.44332 22.6071 2.39252 22.7079 2.36293 22.8156C2.33335 22.9234 2.32558 23.0359 2.34008 23.1467C2.35458 23.2575 2.39107 23.3643 2.44739 23.4608C2.56422 23.6572 2.75367 23.7998 2.97479 23.8577C3.1959 23.9156 3.43092 23.8841 3.62902 23.7701L6.56235 22.1073L6.61806 25.9426C6.62398 26.4072 7.00917 26.7793 7.47969 26.7793H7.49154C7.60391 26.7788 7.71509 26.7563 7.81873 26.7128C7.92237 26.6694 8.01644 26.606 8.09557 26.5262C8.1747 26.4464 8.23734 26.3518 8.27991 26.2478C8.32248 26.1438 8.34415 26.0324 8.34369 25.9201L8.27376 21.1355L15.0933 17.2706V24.8937L10.9677 27.2321C10.87 27.2865 10.7842 27.3598 10.7153 27.4479C10.6464 27.5359 10.5958 27.6368 10.5664 27.7447C10.537 27.8525 10.5295 27.9652 10.5443 28.076C10.559 28.1868 10.5958 28.2936 10.6524 28.39C10.7686 28.5862 10.9575 28.7287 11.1781 28.7864C11.3987 28.8441 11.6332 28.8124 11.8305 28.6981L15.0933 26.8492V30.6774C15.0933 31.1455 15.4785 31.5248 15.9549 31.5248C16.4326 31.5248 16.8189 31.1455 16.8189 30.6762V26.8338L20.2299 28.7064C20.4292 28.817 20.6641 28.8446 20.8836 28.7834C21.1032 28.7222 21.2899 28.577 21.4032 28.3793C21.4583 28.282 21.4934 28.1746 21.5065 28.0636C21.5196 27.9525 21.5105 27.84 21.4796 27.7325C21.4487 27.625 21.3967 27.5248 21.3266 27.4376C21.2565 27.3505 21.1697 27.2782 21.0714 27.2249L16.8189 24.8913V17.1852L23.5152 20.9826V25.6605C23.5152 26.1286 23.9016 26.5079 24.3781 26.5079C24.8557 26.5079 25.2409 26.1286 25.2409 25.6605V21.9615L28.2204 23.6516C28.4179 23.7662 28.6526 23.7982 28.8735 23.7404C29.0944 23.6827 29.2836 23.54 29.3997 23.3435C29.4565 23.2471 29.4934 23.1403 29.5082 23.0295C29.5231 22.9186 29.5156 22.8059 29.4862 22.698C29.4568 22.5901 29.4062 22.4892 29.3371 22.4011C29.2681 22.3131 29.1822 22.2398 29.0844 22.1855L26.0895 20.4872L29.4447 18.5221C29.5415 18.4663 29.6261 18.3918 29.6937 18.3029C29.7613 18.214 29.8105 18.1125 29.8384 18.0043C29.8663 17.8962 29.8724 17.7836 29.8563 17.673C29.8402 17.5625 29.8022 17.4563 29.7446 17.3606"/>
</mask>
<path d="M29.7446 17.3595C29.6248 17.1654 29.4338 17.026 29.2125 16.9711C28.9912 16.9162 28.7572 16.9501 28.5606 17.0655L24.3769 19.5153L17.7552 15.7618L24.3781 12.0072L28.5025 14.3455C28.7009 14.4572 28.9349 14.4872 29.155 14.4292C29.3752 14.3713 29.5641 14.2299 29.6818 14.035C29.7383 13.9385 29.775 13.8317 29.7897 13.7209C29.8044 13.61 29.7968 13.4973 29.7673 13.3894C29.7378 13.2816 29.6871 13.1807 29.618 13.0927C29.549 13.0047 29.4631 12.9314 29.3653 12.8771L26.1037 11.0282L28.9221 9.43057C29.0196 9.37616 29.1052 9.30285 29.174 9.21491C29.2429 9.12697 29.2934 9.02618 29.3228 8.91845C29.3521 8.81072 29.3597 8.69822 29.345 8.58753C29.3304 8.47684 29.2937 8.37019 29.2373 8.27383C29.1207 8.07781 28.9318 7.93543 28.7112 7.87735C28.4906 7.81927 28.2561 7.85014 28.0581 7.96331L25.2255 9.56924L25.1721 5.73161C25.1662 5.50495 25.0707 5.28987 24.9066 5.13348C24.7424 4.9771 24.523 4.89214 24.2963 4.89724C24.1841 4.8977 24.0731 4.92028 23.9697 4.96367C23.8663 5.00705 23.7724 5.07041 23.6935 5.1501C23.6146 5.2298 23.5521 5.32427 23.5098 5.42812C23.4674 5.53197 23.4459 5.64315 23.4465 5.75531L23.5141 10.5387L16.8178 14.3361V6.63235L20.9422 4.29279C21.0401 4.23859 21.1261 4.16537 21.1953 4.07743C21.2644 3.98949 21.3153 3.88861 21.3449 3.78072C21.3745 3.67284 21.3822 3.56012 21.3676 3.44921C21.353 3.33829 21.3163 3.23142 21.2598 3.13487C21.1428 2.93925 20.9537 2.79737 20.7332 2.73974C20.5127 2.68212 20.2783 2.71335 20.0806 2.82672L16.8189 4.67561V0.84746C16.818 0.735041 16.7949 0.623909 16.751 0.520434C16.707 0.416959 16.6431 0.323174 16.5628 0.244453C16.4825 0.165732 16.3875 0.103623 16.2832 0.0616842C16.1789 0.0197455 16.0674 -0.00119832 15.9549 5.29314e-05C15.7285 -0.00184204 15.5106 0.0862137 15.349 0.244879C15.1875 0.403545 15.0955 0.619847 15.0933 0.846275V4.69102L11.6824 2.81842C11.4828 2.70881 11.2483 2.68167 11.029 2.74281C10.8097 2.80395 10.6231 2.9485 10.509 3.14553C10.454 3.24287 10.4188 3.3502 10.4057 3.46126C10.3926 3.57232 10.4018 3.68488 10.4327 3.79236C10.4636 3.89984 10.5156 4.00008 10.5857 4.08722C10.6558 4.17437 10.7425 4.24667 10.8409 4.2999L15.0933 6.63353V14.2507L8.27258 10.3858V5.70672C8.27149 5.5945 8.24831 5.48359 8.20437 5.38033C8.16042 5.27707 8.09656 5.18348 8.01644 5.1049C7.93632 5.02632 7.8415 4.96429 7.73741 4.92236C7.63331 4.88042 7.52198 4.8594 7.40976 4.8605C7.29754 4.8594 7.18621 4.88042 7.08211 4.92236C6.97802 4.96429 6.8832 5.02632 6.80308 5.1049C6.72296 5.18348 6.6591 5.27707 6.61516 5.38033C6.57121 5.48359 6.54803 5.5945 6.54695 5.70672V9.40568L2.95465 7.36835C2.75655 7.25549 2.5221 7.22479 2.30162 7.28285C2.08115 7.3409 1.89222 7.48308 1.77539 7.67887C1.71862 7.77523 1.68172 7.88199 1.66686 7.99284C1.65199 8.10369 1.65947 8.21639 1.68885 8.32431C1.71823 8.43222 1.76892 8.53316 1.83793 8.62118C1.90694 8.7092 1.99286 8.78251 2.09065 8.83679L5.69954 10.8824L2.34309 12.8475C2.24657 12.9035 2.16215 12.9782 2.09476 13.0671C2.02737 13.1561 1.97835 13.2576 1.95056 13.3657C1.92276 13.4738 1.91675 13.5863 1.93286 13.6967C1.94898 13.8072 1.9869 13.9133 2.04443 14.0089C2.12191 14.136 2.23096 14.2409 2.36096 14.3134C2.49097 14.3859 2.63751 14.4235 2.78635 14.4226C2.94139 14.4229 3.09366 14.3815 3.22724 14.3029L7.41213 11.8519L14.304 15.7606L7.41095 19.6694L3.2865 17.3298C3.08854 17.2169 2.8542 17.186 2.63374 17.2438C2.41328 17.3017 2.22427 17.4436 2.10724 17.6392C2.05064 17.7356 2.01386 17.8423 1.99909 17.9531C1.98431 18.0639 1.99183 18.1766 2.0212 18.2845C2.05057 18.3923 2.1012 18.4933 2.17011 18.5813C2.23902 18.6693 2.32484 18.7427 2.4225 18.7971L5.68413 20.646L2.76502 22.3041C2.66731 22.3583 2.58142 22.4314 2.51237 22.5193C2.44332 22.6071 2.39252 22.7079 2.36293 22.8156C2.33335 22.9234 2.32558 23.0359 2.34008 23.1467C2.35458 23.2575 2.39107 23.3643 2.44739 23.4608C2.56422 23.6572 2.75367 23.7998 2.97479 23.8577C3.1959 23.9156 3.43092 23.8841 3.62902 23.7701L6.56235 22.1073L6.61806 25.9426C6.62398 26.4072 7.00917 26.7793 7.47969 26.7793H7.49154C7.60391 26.7788 7.71509 26.7563 7.81873 26.7128C7.92237 26.6694 8.01644 26.606 8.09557 26.5262C8.1747 26.4464 8.23734 26.3518 8.27991 26.2478C8.32248 26.1438 8.34415 26.0324 8.34369 25.9201L8.27376 21.1355L15.0933 17.2706V24.8937L10.9677 27.2321C10.87 27.2865 10.7842 27.3598 10.7153 27.4479C10.6464 27.5359 10.5958 27.6368 10.5664 27.7447C10.537 27.8525 10.5295 27.9652 10.5443 28.076C10.559 28.1868 10.5958 28.2936 10.6524 28.39C10.7686 28.5862 10.9575 28.7287 11.1781 28.7864C11.3987 28.8441 11.6332 28.8124 11.8305 28.6981L15.0933 26.8492V30.6774C15.0933 31.1455 15.4785 31.5248 15.9549 31.5248C16.4326 31.5248 16.8189 31.1455 16.8189 30.6762V26.8338L20.2299 28.7064C20.4292 28.817 20.6641 28.8446 20.8836 28.7834C21.1032 28.7222 21.2899 28.577 21.4032 28.3793C21.4583 28.282 21.4934 28.1746 21.5065 28.0636C21.5196 27.9525 21.5105 27.84 21.4796 27.7325C21.4487 27.625 21.3967 27.5248 21.3266 27.4376C21.2565 27.3505 21.1697 27.2782 21.0714 27.2249L16.8189 24.8913V17.1852L23.5152 20.9826V25.6605C23.5152 26.1286 23.9016 26.5079 24.3781 26.5079C24.8557 26.5079 25.2409 26.1286 25.2409 25.6605V21.9615L28.2204 23.6516C28.4179 23.7662 28.6526 23.7982 28.8735 23.7404C29.0944 23.6827 29.2836 23.54 29.3997 23.3435C29.4565 23.2471 29.4934 23.1403 29.5082 23.0295C29.5231 22.9186 29.5156 22.8059 29.4862 22.698C29.4568 22.5901 29.4062 22.4892 29.3371 22.4011C29.2681 22.3131 29.1822 22.2398 29.0844 22.1855L26.0895 20.4872L29.4447 18.5221C29.5415 18.4663 29.6261 18.3918 29.6937 18.3029C29.7613 18.214 29.8105 18.1125 29.8384 18.0043C29.8663 17.8962 29.8724 17.7836 29.8563 17.673C29.8402 17.5625 29.8022 17.4563 29.7446 17.3606" fill="white"/>
<path d="M28.5606 17.0655L28.7122 17.3244L28.7125 17.3242L28.5606 17.0655ZM24.3769 19.5153L24.2289 19.7763L24.3793 19.8615L24.5285 19.7742L24.3769 19.5153ZM17.7552 15.7618L17.6073 15.5009L17.1469 15.7618L17.6073 16.0228L17.7552 15.7618ZM24.3781 12.0072L24.526 11.7462L24.3781 11.6623L24.2301 11.7462L24.3781 12.0072ZM28.5025 14.3455L28.3545 14.6065L28.3554 14.607L28.5025 14.3455ZM29.6818 14.035L29.9386 14.1901L29.9406 14.1867L29.6818 14.035ZM29.3653 12.8771L29.2174 13.1381L29.2196 13.1393L29.3653 12.8771ZM26.1037 11.0282L25.9557 10.7672L25.4953 11.0282L25.9557 11.2892L26.1037 11.0282ZM28.9221 9.43057L28.7759 9.16859L28.7741 9.16959L28.9221 9.43057ZM29.2373 8.27383L29.4962 8.12225L29.4951 8.12045L29.2373 8.27383ZM28.0581 7.96331L28.206 8.22429L28.2069 8.22378L28.0581 7.96331ZM25.2255 9.56924L24.9255 9.57341L24.9325 10.0802L25.3734 9.83021L25.2255 9.56924ZM25.1721 5.73161L25.4721 5.72744L25.472 5.7238L25.1721 5.73161ZM24.2963 4.89724L24.2975 5.19729L24.303 5.19716L24.2963 4.89724ZM23.4465 5.75531L23.1465 5.75698L23.1465 5.75955L23.4465 5.75531ZM23.5141 10.5387L23.662 10.7997L23.8165 10.7121L23.814 10.5345L23.5141 10.5387ZM16.8178 14.3361H16.5178V14.8511L16.9657 14.597L16.8178 14.3361ZM16.8178 6.63235L16.6697 6.37141L16.5178 6.45762V6.63235H16.8178ZM20.9422 4.29279L20.7968 4.03034L20.7942 4.03185L20.9422 4.29279ZM21.1953 4.07743L20.9594 3.89199L21.1953 4.07743ZM21.2598 3.13487L21.5188 2.98331L21.5173 2.98088L21.2598 3.13487ZM20.0806 2.82672L20.2285 3.08771L20.2298 3.08698L20.0806 2.82672ZM16.8189 4.67561H16.5189V5.19051L16.9669 4.93659L16.8189 4.67561ZM16.8189 0.84746H17.119L17.1189 0.844982L16.8189 0.84746ZM15.9549 5.29314e-05L15.9524 0.300099L15.9583 0.300034L15.9549 5.29314e-05ZM15.0933 0.846275L14.7933 0.843373V0.846275H15.0933ZM15.0933 4.69102L14.9489 4.95399L15.3933 5.19795V4.69102H15.0933ZM11.6824 2.81842L11.5379 3.08136L11.538 3.0814L11.6824 2.81842ZM10.509 3.14553L10.2494 2.99524L10.2479 2.99782L10.509 3.14553ZM10.8409 4.2999L10.9852 4.0369L10.9837 4.03607L10.8409 4.2999ZM15.0933 6.63353H15.3933V6.45596L15.2376 6.37053L15.0933 6.63353ZM15.0933 14.2507L14.9454 14.5117L15.3933 14.7655V14.2507H15.0933ZM8.27258 10.3858H7.97258V10.5607L8.12468 10.6468L8.27258 10.3858ZM8.27258 5.70672H8.57259L8.57256 5.70382L8.27258 5.70672ZM7.40976 4.8605L7.40683 5.16054L7.41269 5.16048L7.40976 4.8605ZM6.54695 5.70672L6.24695 5.70382V5.70672H6.54695ZM6.54695 9.40568L6.39895 9.66664L6.84695 9.92071V9.40568H6.54695ZM2.95465 7.36835L2.80615 7.62902L2.80665 7.6293L2.95465 7.36835ZM1.77539 7.67887L1.51777 7.52514L1.51691 7.52659L1.77539 7.67887ZM2.09065 8.83679L2.23859 8.5758L2.23626 8.5745L2.09065 8.83679ZM5.69954 10.8824L5.85111 11.1413L6.3005 10.8782L5.84748 10.6214L5.69954 10.8824ZM2.34309 12.8475L2.4937 13.1069L2.49466 13.1064L2.34309 12.8475ZM2.04443 14.0089L1.78734 14.1636L1.78828 14.1651L2.04443 14.0089ZM2.78635 14.4226L2.78698 14.1226L2.78453 14.1226L2.78635 14.4226ZM3.22724 14.3029L3.07563 14.044L3.07499 14.0444L3.22724 14.3029ZM7.41213 11.8519L7.56013 11.591L7.40973 11.5056L7.26052 11.593L7.41213 11.8519ZM14.304 15.7606L14.452 16.0216L14.9121 15.7607L14.452 15.4997L14.304 15.7606ZM7.41095 19.6694L7.26293 19.9303L7.41092 20.0143L7.55893 19.9303L7.41095 19.6694ZM3.2865 17.3298L3.13782 17.5904L3.13848 17.5908L3.2865 17.3298ZM2.10724 17.6392L1.8498 17.4851L1.84854 17.4873L2.10724 17.6392ZM2.4225 18.7971L2.57045 18.5361L2.56849 18.535L2.4225 18.7971ZM5.68413 20.646L5.8323 20.9068L6.29201 20.6457L5.83207 20.385L5.68413 20.646ZM2.76502 22.3041L2.91056 22.5664L2.91319 22.5649L2.76502 22.3041ZM2.44739 23.4608L2.18829 23.612L2.18954 23.6141L2.44739 23.4608ZM3.62902 23.7701L3.48107 23.5091L3.47938 23.5101L3.62902 23.7701ZM6.56235 22.1073L6.86232 22.103L6.85497 21.5966L6.41441 21.8463L6.56235 22.1073ZM6.61806 25.9426L6.91803 25.9387L6.91803 25.9382L6.61806 25.9426ZM7.47969 26.7793V26.4793V26.7793ZM7.49154 26.7793V27.0793L7.49278 27.0793L7.49154 26.7793ZM8.34369 25.9201L8.6437 25.9188L8.64365 25.9157L8.34369 25.9201ZM8.27376 21.1355L8.12584 20.8745L7.9712 20.9621L7.97379 21.1398L8.27376 21.1355ZM15.0933 17.2706H15.3933V16.7557L14.9454 17.0096L15.0933 17.2706ZM15.0933 24.8937L15.2412 25.1547L15.3933 25.0685V24.8937H15.0933ZM10.9677 27.2321L11.1137 27.4941L11.1156 27.493L10.9677 27.2321ZM10.6524 28.39L10.3937 28.5419L10.3942 28.5428L10.6524 28.39ZM11.8305 28.6981L11.6826 28.4371L11.6802 28.4385L11.8305 28.6981ZM15.0933 26.8492H15.3933V26.3344L14.9454 26.5882L15.0933 26.8492ZM16.8189 26.8338L16.9633 26.5709L16.5189 26.3269V26.8338H16.8189ZM20.2299 28.7064L20.3754 28.4441L20.3743 28.4434L20.2299 28.7064ZM21.4032 28.3793L21.6635 28.5286L21.6644 28.527L21.4032 28.3793ZM21.0714 27.2249L20.9271 27.4879L20.9286 27.4888L21.0714 27.2249ZM16.8189 24.8913H16.5189V25.0689L16.6746 25.1543L16.8189 24.8913ZM16.8189 17.1852L16.9669 16.9243L16.5189 16.6702V17.1852H16.8189ZM23.5152 20.9826H23.8152V20.8078L23.6632 20.7216L23.5152 20.9826ZM25.2409 21.9615L25.3889 21.7006L24.9409 21.4465V21.9615H25.2409ZM28.2204 23.6516L28.371 23.3921L28.3684 23.3907L28.2204 23.6516ZM29.3997 23.3435L29.658 23.4961L29.6582 23.4957L29.3997 23.3435ZM29.0844 22.1855L28.9364 22.4465L28.9388 22.4478L29.0844 22.1855ZM26.0895 20.4872L25.9379 20.2283L25.4887 20.4914L25.9415 20.7481L26.0895 20.4872ZM29.4447 18.5221L29.2948 18.2623L29.2931 18.2633L29.4447 18.5221ZM29.7446 17.3595L29.9998 17.2019C29.8389 16.9411 29.5822 16.7538 29.2848 16.6799L29.2125 16.9711L29.1402 17.2623C29.2854 17.2983 29.4107 17.3898 29.4893 17.5171L29.7446 17.3595ZM29.2125 16.9711L29.2848 16.6799C28.9874 16.6061 28.6729 16.6517 28.4086 16.8069L28.5606 17.0655L28.7125 17.3242C28.8415 17.2485 28.995 17.2262 29.1402 17.2623L29.2125 16.9711ZM28.5606 17.0655L28.409 16.8067L24.2253 19.2564L24.3769 19.5153L24.5285 19.7742L28.7122 17.3244L28.5606 17.0655ZM24.3769 19.5153L24.5248 19.2543L17.9032 15.5008L17.7552 15.7618L17.6073 16.0228L24.2289 19.7763L24.3769 19.5153ZM17.7552 15.7618L17.9032 16.0228L24.526 12.2681L24.3781 12.0072L24.2301 11.7462L17.6073 15.5009L17.7552 15.7618ZM24.3781 12.0072L24.2301 12.2681L28.3545 14.6065L28.5025 14.3455L28.6505 14.0846L24.526 11.7462L24.3781 12.0072ZM28.5025 14.3455L28.3554 14.607C28.6217 14.7568 28.9359 14.7971 29.2314 14.7193L29.155 14.4292L29.0787 14.1391C28.9339 14.1772 28.7801 14.1575 28.6496 14.0841L28.5025 14.3455ZM29.155 14.4292L29.2314 14.7193C29.527 14.6415 29.7806 14.4517 29.9386 14.1901L29.6818 14.035L29.425 13.8799C29.3476 14.008 29.2234 14.101 29.0787 14.1391L29.155 14.4292ZM29.6818 14.035L29.9406 14.1867C30.0173 14.0558 30.0672 13.9108 30.0871 13.7603L29.7897 13.7209L29.4923 13.6815C29.4829 13.7527 29.4593 13.8213 29.423 13.8833L29.6818 14.035ZM29.7897 13.7209L30.0871 13.7603C30.1071 13.6098 30.0967 13.4568 30.0567 13.3104L29.7673 13.3894L29.4779 13.4685C29.4969 13.5378 29.5018 13.6102 29.4923 13.6815L29.7897 13.7209ZM29.7673 13.3894L30.0567 13.3104C30.0167 13.1639 29.9478 13.0269 29.8541 12.9075L29.618 13.0927L29.382 13.2779C29.4264 13.3344 29.459 13.3992 29.4779 13.4685L29.7673 13.3894ZM29.618 13.0927L29.8541 12.9075C29.7603 12.7881 29.6437 12.6885 29.511 12.6148L29.3653 12.8771L29.2196 13.1393C29.2825 13.1742 29.3377 13.2213 29.382 13.2779L29.618 13.0927ZM29.3653 12.8771L29.5133 12.6161L26.2516 10.7672L26.1037 11.0282L25.9557 11.2892L29.2174 13.1381L29.3653 12.8771ZM26.1037 11.0282L26.2516 11.2892L29.07 9.69156L28.9221 9.43057L28.7741 9.16959L25.9557 10.7672L26.1037 11.0282ZM28.9221 9.43057L29.0682 9.69255C29.2006 9.61869 29.3169 9.51916 29.4103 9.39978L29.174 9.21491L28.9378 9.03003C28.8936 9.08653 28.8385 9.13364 28.7759 9.16859L28.9221 9.43057ZM29.174 9.21491L29.4103 9.39978C29.5037 9.2804 29.5724 9.14359 29.6122 8.99734L29.3228 8.91845L29.0333 8.83957C29.0145 8.90878 28.982 8.97353 28.9378 9.03003L29.174 9.21491ZM29.3228 8.91845L29.6122 8.99734C29.6521 8.85109 29.6623 8.69836 29.6424 8.5481L29.345 8.58753L29.0476 8.62696C29.0571 8.69807 29.0522 8.77036 29.0333 8.83957L29.3228 8.91845ZM29.345 8.58753L29.6424 8.5481C29.6225 8.39783 29.5728 8.25306 29.4962 8.12225L29.2373 8.27383L28.9784 8.42541C29.0147 8.48732 29.0382 8.55584 29.0476 8.62696L29.345 8.58753ZM29.2373 8.27383L29.4951 8.12045C29.3383 7.85683 29.0842 7.66535 28.7876 7.58724L28.7112 7.87735L28.6348 8.16746C28.7793 8.20551 28.9031 8.29879 28.9795 8.42721L29.2373 8.27383ZM28.7112 7.87735L28.7876 7.58724C28.491 7.50913 28.1755 7.55065 27.9092 7.70284L28.0581 7.96331L28.2069 8.22378C28.3366 8.14964 28.4903 8.12941 28.6348 8.16746L28.7112 7.87735ZM28.0581 7.96331L27.9101 7.70234L25.0775 9.30826L25.2255 9.56924L25.3734 9.83021L28.206 8.22429L28.0581 7.96331ZM25.2255 9.56924L25.5254 9.56507L25.4721 5.72744L25.1721 5.73161L24.8722 5.73578L24.9255 9.57341L25.2255 9.56924ZM25.1721 5.73161L25.472 5.7238C25.4641 5.41779 25.3351 5.12741 25.1135 4.91627L24.9066 5.13348L24.6996 5.3507C24.8063 5.45233 24.8684 5.59211 24.8722 5.73942L25.1721 5.73161ZM24.9066 5.13348L25.1135 4.91627C24.8919 4.70513 24.5956 4.59044 24.2895 4.59731L24.2963 4.89724L24.303 5.19716C24.4503 5.19385 24.593 5.24906 24.6996 5.3507L24.9066 5.13348ZM24.2963 4.89724L24.295 4.59724C24.1434 4.59787 23.9935 4.62838 23.8537 4.68702L23.9697 4.96367L24.0858 5.24031C24.1528 5.21217 24.2248 5.19754 24.2975 5.19724L24.2963 4.89724ZM23.9697 4.96367L23.8537 4.68702C23.7139 4.74567 23.587 4.83129 23.4803 4.93901L23.6935 5.1501L23.9067 5.3612C23.9578 5.30953 24.0187 5.26844 24.0858 5.24031L23.9697 4.96367ZM23.6935 5.1501L23.4803 4.93901C23.3737 5.04672 23.2893 5.1744 23.232 5.31476L23.5098 5.42812L23.7875 5.54148C23.815 5.47414 23.8555 5.41288 23.9067 5.3612L23.6935 5.1501ZM23.5098 5.42812L23.232 5.31476C23.1747 5.45511 23.1457 5.60539 23.1465 5.75698L23.4465 5.75531L23.7465 5.75364C23.7461 5.68092 23.76 5.60882 23.7875 5.54148L23.5098 5.42812ZM23.4465 5.75531L23.1465 5.75955L23.2141 10.543L23.5141 10.5387L23.814 10.5345L23.7465 5.75108L23.4465 5.75531ZM23.5141 10.5387L23.3661 10.2778L16.6698 14.0751L16.8178 14.3361L16.9657 14.597L23.662 10.7997L23.5141 10.5387ZM16.8178 14.3361H17.1178V6.63235H16.8178H16.5178V14.3361H16.8178ZM16.8178 6.63235L16.9658 6.89329L21.0902 4.55374L20.9422 4.29279L20.7942 4.03185L16.6697 6.37141L16.8178 6.63235ZM20.9422 4.29279L21.0876 4.55523C21.2204 4.48165 21.3372 4.38225 21.4311 4.26287L21.1953 4.07743L20.9594 3.89199C20.915 3.94849 20.8597 3.99553 20.7969 4.03036L20.9422 4.29279ZM21.1953 4.07743L21.4311 4.26287C21.525 4.14349 21.594 4.00654 21.6342 3.86008L21.3449 3.78072L21.0556 3.70136C21.0365 3.77067 21.0039 3.83549 20.9594 3.89199L21.1953 4.07743ZM21.3449 3.78072L21.6342 3.86008C21.6744 3.71362 21.6848 3.56061 21.665 3.41004L21.3676 3.44921L21.0702 3.48837C21.0795 3.55963 21.0746 3.63205 21.0556 3.70136L21.3449 3.78072ZM21.3676 3.44921L21.665 3.41004C21.6452 3.25947 21.5955 3.11439 21.5187 2.98332L21.2598 3.13487L21.0009 3.28641C21.0372 3.34844 21.0608 3.41711 21.0702 3.48837L21.3676 3.44921ZM21.2598 3.13487L21.5173 2.98088C21.3599 2.7178 21.1056 2.52699 20.809 2.44949L20.7332 2.73974L20.6573 3.03C20.8018 3.06775 20.9257 3.1607 21.0024 3.28886L21.2598 3.13487ZM20.7332 2.73974L20.809 2.44949C20.5125 2.37199 20.1973 2.41399 19.9314 2.56646L20.0806 2.82672L20.2298 3.08698C20.3593 3.0127 20.5129 2.99224 20.6573 3.03L20.7332 2.73974ZM20.0806 2.82672L19.9326 2.56573L16.671 4.41462L16.8189 4.67561L16.9669 4.93659L20.2285 3.0877L20.0806 2.82672ZM16.8189 4.67561H17.1189V0.84746H16.8189H16.5189V4.67561H16.8189ZM16.8189 0.84746L17.1189 0.844982C17.1177 0.693097 17.0865 0.54295 17.0271 0.403146L16.751 0.520434L16.4748 0.637723C16.5034 0.704869 16.5184 0.776985 16.519 0.849938L16.8189 0.84746ZM16.751 0.520434L17.0271 0.403146C16.9677 0.263342 16.8813 0.136631 16.7729 0.0302744L16.5628 0.244453L16.3527 0.458632C16.4048 0.509717 16.4463 0.570576 16.4748 0.637723L16.751 0.520434ZM16.5628 0.244453L16.7729 0.0302744C16.6644 -0.0760833 16.5361 -0.159998 16.3951 -0.21666L16.2832 0.0616842L16.1713 0.340028C16.239 0.367243 16.3007 0.407548 16.3527 0.458632L16.5628 0.244453ZM16.2832 0.0616842L16.3951 -0.21666C16.2542 -0.273322 16.1035 -0.301619 15.9516 -0.299928L15.9549 5.29314e-05L15.9583 0.300034C16.0312 0.299222 16.1036 0.312813 16.1713 0.340028L16.2832 0.0616842ZM15.9549 5.29314e-05L15.9575 -0.299937C15.6515 -0.302497 15.3571 -0.183527 15.1388 0.0308423L15.349 0.244879L15.5592 0.458916C15.6641 0.355954 15.8055 0.298813 15.9524 0.300042L15.9549 5.29314e-05ZM15.349 0.244879L15.1388 0.0308423C14.9206 0.245211 14.7963 0.537451 14.7933 0.843373L15.0933 0.846275L15.3933 0.849177C15.3947 0.702242 15.4544 0.561879 15.5592 0.458916L15.349 0.244879ZM15.0933 0.846275H14.7933V4.69102H15.0933H15.3933V0.846275H15.0933ZM15.0933 4.69102L15.2377 4.42804L11.8267 2.55545L11.6824 2.81842L11.538 3.0814L14.9489 4.95399L15.0933 4.69102ZM11.6824 2.81842L11.8268 2.55548C11.5585 2.40813 11.2433 2.37164 10.9484 2.45383L11.029 2.74281L11.1096 3.03179C11.2533 2.99171 11.4071 3.0095 11.5379 3.08136L11.6824 2.81842ZM11.029 2.74281L10.9484 2.45383C10.6536 2.53602 10.4027 2.73036 10.2494 2.99525L10.509 3.14553L10.7687 3.29582C10.8434 3.16664 10.9658 3.07187 11.1096 3.03179L11.029 2.74281ZM10.509 3.14553L10.2479 2.99782C10.1732 3.12985 10.1256 3.27545 10.1078 3.42611L10.4057 3.46126L10.7037 3.49642C10.7121 3.42495 10.7347 3.35589 10.7701 3.29325L10.509 3.14553ZM10.4057 3.46126L10.1078 3.42611C10.09 3.57676 10.1025 3.72945 10.1444 3.87525L10.4327 3.79236L10.721 3.70947C10.7011 3.64031 10.6952 3.56788 10.7037 3.49642L10.4057 3.46126ZM10.4327 3.79236L10.1444 3.87525C10.1863 4.02104 10.2568 4.15702 10.3519 4.27523L10.5857 4.08722L10.8195 3.89922C10.7744 3.84314 10.7409 3.77864 10.721 3.70947L10.4327 3.79236ZM10.5857 4.08722L10.3519 4.27523C10.447 4.39345 10.5647 4.49153 10.6981 4.56374L10.8409 4.2999L10.9837 4.03607C10.9204 4.00182 10.8646 3.95529 10.8195 3.89922L10.5857 4.08722ZM10.8409 4.2999L10.6965 4.56291L14.949 6.89653L15.0933 6.63353L15.2376 6.37053L10.9852 4.0369L10.8409 4.2999ZM15.0933 6.63353H14.7933V14.2507H15.0933H15.3933V6.63353H15.0933ZM15.0933 14.2507L15.2412 13.9897L8.42047 10.1248L8.27258 10.3858L8.12468 10.6468L14.9454 14.5117L15.0933 14.2507ZM8.27258 10.3858H8.57258V5.70672H8.27258H7.97258V10.3858H8.27258ZM8.27258 5.70672L8.57256 5.70382C8.5711 5.5522 8.53978 5.40236 8.4804 5.26285L8.20437 5.38033L7.92833 5.49782C7.95685 5.56483 7.97189 5.6368 7.97259 5.70962L8.27258 5.70672ZM8.20437 5.38033L8.4804 5.26285C8.42103 5.12334 8.33475 4.99689 8.2265 4.89072L8.01644 5.1049L7.80638 5.31908C7.85837 5.37007 7.89981 5.43081 7.92833 5.49782L8.20437 5.38033ZM8.01644 5.1049L8.2265 4.89072C8.11825 4.78455 7.99015 4.70075 7.84951 4.64409L7.73741 4.92236L7.62531 5.20063C7.69286 5.22784 7.75438 5.26809 7.80638 5.31908L8.01644 5.1049ZM7.73741 4.92236L7.84951 4.64409C7.70887 4.58743 7.55845 4.55903 7.40683 4.56051L7.40976 4.8605L7.41269 5.16048C7.48551 5.15977 7.55776 5.17341 7.62531 5.20063L7.73741 4.92236ZM7.40976 4.8605L7.41269 4.56051C7.26107 4.55903 7.11065 4.58743 6.97001 4.64409L7.08211 4.92236L7.19422 5.20063C7.26177 5.17341 7.33401 5.15977 7.40683 5.16048L7.40976 4.8605ZM7.08211 4.92236L6.97001 4.64409C6.82937 4.70075 6.70127 4.78455 6.59302 4.89072L6.80308 5.1049L7.01315 5.31908C7.06514 5.26809 7.12667 5.22784 7.19422 5.20063L7.08211 4.92236ZM6.80308 5.1049L6.59302 4.89072C6.48477 4.99689 6.39849 5.12334 6.33912 5.26285L6.61516 5.38033L6.8912 5.49782C6.91971 5.43081 6.96115 5.37008 7.01315 5.31908L6.80308 5.1049ZM6.61516 5.38033L6.33912 5.26285C6.27974 5.40236 6.24843 5.5522 6.24696 5.70382L6.54695 5.70672L6.84693 5.70962C6.84764 5.6368 6.86268 5.56483 6.8912 5.49782L6.61516 5.38033ZM6.54695 5.70672H6.24695V9.40568H6.54695H6.84695V5.70672H6.54695ZM6.54695 9.40568L6.69494 9.14473L3.10265 7.10739L2.95465 7.36835L2.80665 7.6293L6.39895 9.66664L6.54695 9.40568ZM2.95465 7.36835L3.10315 7.10768C2.83683 6.95596 2.52164 6.91469 2.22523 6.99274L2.30162 7.28285L2.37802 7.57296C2.52256 7.5349 2.67627 7.55502 2.80615 7.62901L2.95465 7.36835ZM2.30162 7.28285L2.22523 6.99274C1.92883 7.07079 1.67483 7.26193 1.51777 7.52514L1.77539 7.67887L2.03301 7.83259C2.1096 7.70424 2.23347 7.61102 2.37802 7.57296L2.30162 7.28285ZM1.77539 7.67887L1.51691 7.52659C1.43982 7.65746 1.3897 7.80243 1.36952 7.95297L1.66686 7.99284L1.96419 8.0327C1.97374 7.96154 1.99743 7.89301 2.03387 7.83114L1.77539 7.67887ZM1.66686 7.99284L1.36952 7.95297C1.34933 8.10351 1.35949 8.25657 1.39939 8.40312L1.68885 8.32431L1.97832 8.2455C1.95946 8.17622 1.95465 8.10387 1.96419 8.0327L1.66686 7.99284ZM1.68885 8.32431L1.39939 8.40312C1.43929 8.54967 1.50813 8.68675 1.60184 8.80628L1.83793 8.62118L2.07402 8.43608C2.02972 8.37958 1.99718 8.31478 1.97832 8.2455L1.68885 8.32431ZM1.83793 8.62118L1.60184 8.80628C1.69555 8.92581 1.81225 9.02537 1.94504 9.09909L2.09065 8.83679L2.23626 8.5745C2.17348 8.53965 2.11832 8.49259 2.07402 8.43608L1.83793 8.62118ZM2.09065 8.83679L1.94271 9.09778L5.5516 11.1434L5.69954 10.8824L5.84748 10.6214L2.23859 8.5758L2.09065 8.83679ZM5.69954 10.8824L5.54797 10.6235L2.19152 12.5886L2.34309 12.8475L2.49466 13.1064L5.85111 11.1413L5.69954 10.8824ZM2.34309 12.8475L2.19249 12.588C2.06155 12.664 1.94704 12.7653 1.85563 12.886L2.09476 13.0671L2.3339 13.2483C2.37726 13.191 2.43158 13.143 2.4937 13.1069L2.34309 12.8475ZM2.09476 13.0671L1.85563 12.886C1.76421 13.0067 1.69771 13.1443 1.66001 13.291L1.95056 13.3657L2.2411 13.4404C2.25899 13.3708 2.29053 13.3055 2.3339 13.2483L2.09476 13.0671ZM1.95056 13.3657L1.66001 13.291C1.6223 13.4376 1.61415 13.5902 1.63601 13.7401L1.93286 13.6967L2.22972 13.6534C2.21935 13.5823 2.22322 13.5099 2.2411 13.4404L1.95056 13.3657ZM1.93286 13.6967L1.63601 13.7401C1.65787 13.8899 1.70931 14.0338 1.78735 14.1636L2.04443 14.0089L2.30151 13.8543C2.26449 13.7928 2.24009 13.7245 2.22972 13.6534L1.93286 13.6967ZM2.04443 14.0089L1.78828 14.1651C1.89271 14.3364 2.03967 14.4777 2.21488 14.5754L2.36096 14.3134L2.50705 14.0514C2.42224 14.0041 2.35111 13.9357 2.30057 13.8528L2.04443 14.0089ZM2.36096 14.3134L2.21488 14.5754C2.39009 14.6731 2.58758 14.7238 2.78818 14.7226L2.78635 14.4226L2.78453 14.1226C2.68744 14.1232 2.59185 14.0986 2.50705 14.0514L2.36096 14.3134ZM2.78635 14.4226L2.78573 14.7226C2.99452 14.723 3.19959 14.6673 3.3795 14.5614L3.22724 14.3029L3.07499 14.0444C2.98772 14.0958 2.88825 14.1228 2.78698 14.1226L2.78635 14.4226ZM3.22724 14.3029L3.37885 14.5617L7.56374 12.1108L7.41213 11.8519L7.26052 11.593L3.07563 14.044L3.22724 14.3029ZM7.41213 11.8519L7.26413 12.1129L14.156 16.0216L14.304 15.7606L14.452 15.4997L7.56013 11.591L7.41213 11.8519ZM14.304 15.7606L14.156 15.4997L7.26297 19.4084L7.41095 19.6694L7.55893 19.9303L14.452 16.0216L14.304 15.7606ZM7.41095 19.6694L7.55896 19.4084L3.43452 17.0689L3.2865 17.3298L3.13848 17.5908L7.26293 19.9303L7.41095 19.6694ZM3.2865 17.3298L3.43519 17.0693C3.16906 16.9174 2.85401 16.8759 2.55762 16.9536L2.63374 17.2438L2.70986 17.534C2.85439 17.4961 3.00803 17.5163 3.13782 17.5904L3.2865 17.3298ZM2.63374 17.2438L2.55762 16.9536C2.26124 17.0314 2.00713 17.2222 1.8498 17.4851L2.10724 17.6392L2.36468 17.7932C2.4414 17.665 2.56532 17.5719 2.70986 17.534L2.63374 17.2438ZM2.10724 17.6392L1.84854 17.4873C1.7717 17.6181 1.72178 17.763 1.70172 17.9135L1.99909 17.9531L2.29646 17.9928C2.30595 17.9216 2.32958 17.853 2.36594 17.7911L2.10724 17.6392ZM1.99909 17.9531L1.70172 17.9135C1.68166 18.0639 1.69187 18.2168 1.73174 18.3633L2.0212 18.2845L2.31066 18.2057C2.29179 18.1364 2.28696 18.064 2.29646 17.9928L1.99909 17.9531ZM2.0212 18.2845L1.73174 18.3633C1.7716 18.5097 1.84033 18.6467 1.93389 18.7662L2.17011 18.5813L2.40633 18.3964C2.36206 18.3398 2.32953 18.275 2.31066 18.2057L2.0212 18.2845ZM2.17011 18.5813L1.93389 18.7662C2.02744 18.8857 2.14393 18.9853 2.27651 19.0592L2.4225 18.7971L2.56849 18.535C2.50574 18.5001 2.45061 18.4529 2.40633 18.3964L2.17011 18.5813ZM2.4225 18.7971L2.27456 19.0581L5.53619 20.907L5.68413 20.646L5.83207 20.385L2.57044 18.5361L2.4225 18.7971ZM5.68413 20.646L5.53596 20.3851L2.61685 22.0432L2.76502 22.3041L2.91319 22.5649L5.8323 20.9068L5.68413 20.646ZM2.76502 22.3041L2.61948 22.0417C2.48685 22.1153 2.37024 22.2146 2.27651 22.3339L2.51237 22.5193L2.74824 22.7047C2.7926 22.6482 2.84778 22.6012 2.91056 22.5664L2.76502 22.3041ZM2.51237 22.5193L2.27651 22.3339C2.18277 22.4531 2.1138 22.5899 2.07364 22.7362L2.36293 22.8156L2.65222 22.8951C2.67123 22.8258 2.70388 22.7611 2.74824 22.7047L2.51237 22.5193ZM2.36293 22.8156L2.07364 22.7362C2.03348 22.8825 2.02293 23.0353 2.04262 23.1857L2.34008 23.1467L2.63754 23.1078C2.62822 23.0366 2.63322 22.9643 2.65222 22.8951L2.36293 22.8156ZM2.34008 23.1467L2.04262 23.1857C2.06231 23.3361 2.11183 23.481 2.18829 23.612L2.44739 23.4608L2.70649 23.3096C2.6703 23.2476 2.64686 23.179 2.63754 23.1078L2.34008 23.1467ZM2.44739 23.4608L2.18954 23.6141C2.34666 23.8783 2.60144 24.0701 2.89881 24.1479L2.97479 23.8577L3.05076 23.5675C2.9059 23.5296 2.78178 23.4362 2.70524 23.3075L2.44739 23.4608ZM2.97479 23.8577L2.89881 24.1479C3.19618 24.2258 3.51224 24.1835 3.77866 24.0301L3.62902 23.7701L3.47938 23.5101C3.34959 23.5848 3.19563 23.6054 3.05076 23.5675L2.97479 23.8577ZM3.62902 23.7701L3.77696 24.0311L6.7103 22.3683L6.56235 22.1073L6.41441 21.8463L3.48108 23.5091L3.62902 23.7701ZM6.56235 22.1073L6.26239 22.1117L6.31809 25.9469L6.61806 25.9426L6.91803 25.9382L6.86232 22.103L6.56235 22.1073ZM6.61806 25.9426L6.31808 25.9464C6.32617 26.5802 6.85009 27.0793 7.47969 27.0793V26.7793V26.4793C7.16824 26.4793 6.9218 26.2341 6.91803 25.9387L6.61806 25.9426ZM7.47969 26.7793V27.0793H7.49154V26.7793V26.4793H7.47969V26.7793ZM7.49154 26.7793L7.49278 27.0793C7.64455 27.0787 7.79471 27.0482 7.93469 26.9895L7.81873 26.7128L7.70278 26.4361C7.63548 26.4643 7.56327 26.479 7.49029 26.4793L7.49154 26.7793ZM7.81873 26.7128L7.93469 26.9895C8.07466 26.9308 8.20171 26.8452 8.30859 26.7374L8.09557 26.5262L7.88256 26.3149C7.83117 26.3667 7.77008 26.4079 7.70278 26.4361L7.81873 26.7128ZM8.09557 26.5262L8.30859 26.7374C8.41546 26.6297 8.50006 26.5019 8.55755 26.3614L8.27991 26.2478L8.00227 26.1341C7.97463 26.2017 7.93395 26.2631 7.88256 26.3149L8.09557 26.5262ZM8.27991 26.2478L8.55755 26.3614C8.61505 26.221 8.64432 26.0706 8.64368 25.9188L8.34369 25.9201L8.04369 25.9213C8.04399 25.9943 8.02992 26.0666 8.00227 26.1341L8.27991 26.2478ZM8.34369 25.9201L8.64365 25.9157L8.57373 21.1311L8.27376 21.1355L7.97379 21.1398L8.04372 25.9244L8.34369 25.9201ZM8.27376 21.1355L8.42168 21.3965L15.2412 17.5316L15.0933 17.2706L14.9454 17.0096L8.12584 20.8745L8.27376 21.1355ZM15.0933 17.2706H14.7933V24.8937H15.0933H15.3933V17.2706H15.0933ZM15.0933 24.8937L14.9454 24.6327L10.8198 26.9711L10.9677 27.2321L11.1156 27.493L15.2412 25.1547L15.0933 24.8937ZM10.9677 27.2321L10.8217 26.97C10.6891 27.0438 10.5726 27.1434 10.4791 27.2629L10.7153 27.4479L10.9515 27.6328C10.9958 27.5762 11.0509 27.5291 11.1137 27.4941L10.9677 27.2321ZM10.7153 27.4479L10.4791 27.2629C10.3855 27.3824 10.3168 27.5194 10.2769 27.6659L10.5664 27.7447L10.8558 27.8235C10.8747 27.7542 10.9072 27.6893 10.9515 27.6328L10.7153 27.4479ZM10.5664 27.7447L10.2769 27.6659C10.2371 27.8123 10.2268 27.9652 10.2469 28.1157L10.5443 28.076L10.8416 28.0364C10.8321 27.9652 10.837 27.8928 10.8558 27.8235L10.5664 27.7447ZM10.5443 28.076L10.2469 28.1157C10.267 28.2661 10.3169 28.411 10.3937 28.5419L10.6524 28.39L10.9111 28.2381C10.8748 28.1761 10.8511 28.1076 10.8416 28.0364L10.5443 28.076ZM10.6524 28.39L10.3942 28.5428C10.5506 28.8071 10.8051 28.9989 11.1022 29.0766L11.1781 28.7864L11.254 28.4962C11.1099 28.4585 10.9865 28.3654 10.9106 28.2372L10.6524 28.39ZM11.1781 28.7864L11.1022 29.0766C11.3993 29.1543 11.715 29.1116 11.9808 28.9578L11.8305 28.6981L11.6802 28.4385C11.5513 28.5131 11.3981 28.5339 11.254 28.4962L11.1781 28.7864ZM11.8305 28.6981L11.9784 28.9591L15.2412 27.1102L15.0933 26.8492L14.9454 26.5882L11.6826 28.4371L11.8305 28.6981ZM15.0933 26.8492H14.7933V30.6774H15.0933H15.3933V26.8492H15.0933ZM15.0933 30.6774H14.7933C14.7933 31.3158 15.3174 31.8248 15.9549 31.8248V31.5248V31.2248C15.6396 31.2248 15.3933 30.9753 15.3933 30.6774H15.0933ZM15.9549 31.5248V31.8248C16.5931 31.8248 17.1189 31.3163 17.1189 30.6762H16.8189H16.5189C16.5189 30.9747 16.2721 31.2248 15.9549 31.2248V31.5248ZM16.8189 30.6762H17.1189V26.8338H16.8189H16.5189V30.6762H16.8189ZM16.8189 26.8338L16.6746 27.0968L20.0855 28.9694L20.2299 28.7064L20.3743 28.4434L16.9633 26.5709L16.8189 26.8338ZM20.2299 28.7064L20.0844 28.9688C20.3527 29.1175 20.6687 29.1548 20.9642 29.0724L20.8836 28.7834L20.8031 28.4944C20.6594 28.5345 20.5058 28.5164 20.3754 28.4441L20.2299 28.7064ZM20.8836 28.7834L20.9642 29.0724C21.2597 28.99 21.5109 28.7947 21.6635 28.5286L21.4032 28.3793L21.143 28.2301C21.0688 28.3594 20.9467 28.4544 20.8031 28.4944L20.8836 28.7834ZM21.4032 28.3793L21.6644 28.527C21.739 28.395 21.7867 28.2494 21.8045 28.0987L21.5065 28.0636L21.2086 28.0284C21.2002 28.0999 21.1776 28.169 21.1421 28.2316L21.4032 28.3793ZM21.5065 28.0636L21.8045 28.0987C21.8222 27.9481 21.8098 27.7954 21.7679 27.6496L21.4796 27.7325L21.1912 27.8154C21.2111 27.8845 21.217 27.957 21.2086 28.0284L21.5065 28.0636ZM21.4796 27.7325L21.7679 27.6496C21.726 27.5038 21.6554 27.3678 21.5604 27.2496L21.3266 27.4376L21.0928 27.6256C21.1379 27.6817 21.1714 27.7462 21.1912 27.8154L21.4796 27.7325ZM21.3266 27.4376L21.5604 27.2496C21.4653 27.1314 21.3476 27.0333 21.2142 26.9611L21.0714 27.2249L20.9286 27.4888C20.9919 27.523 21.0477 27.5696 21.0928 27.6256L21.3266 27.4376ZM21.0714 27.2249L21.2157 26.9619L16.9633 24.6283L16.8189 24.8913L16.6746 25.1543L20.9271 27.4879L21.0714 27.2249ZM16.8189 24.8913H17.1189V17.1852H16.8189H16.5189V24.8913H16.8189ZM16.8189 17.1852L16.671 17.4462L23.3673 21.2435L23.5152 20.9826L23.6632 20.7216L16.9669 16.9243L16.8189 17.1852ZM23.5152 20.9826H23.2152V25.6605H23.5152H23.8152V20.9826H23.5152ZM23.5152 25.6605H23.2152C23.2152 26.2995 23.7411 26.8079 24.3781 26.8079V26.5079V26.2079C24.0621 26.2079 23.8152 25.9578 23.8152 25.6605H23.5152ZM24.3781 26.5079V26.8079C25.0165 26.8079 25.5409 26.2992 25.5409 25.6605H25.2409H24.9409C24.9409 25.9581 24.6949 26.2079 24.3781 26.2079V26.5079ZM25.2409 25.6605H25.5409V21.9615H25.2409H24.9409V25.6605H25.2409ZM25.2409 21.9615L25.0929 22.2225L28.0724 23.9126L28.2204 23.6516L28.3684 23.3907L25.3889 21.7006L25.2409 21.9615ZM28.2204 23.6516L28.0698 23.9111C28.3357 24.0654 28.6519 24.1084 28.9494 24.0307L28.8735 23.7404L28.7977 23.4502C28.6534 23.4879 28.5 23.467 28.371 23.3922L28.2204 23.6516ZM28.8735 23.7404L28.9494 24.0307C29.2469 23.953 29.5016 23.7608 29.658 23.4961L29.3997 23.3435L29.1414 23.1909C29.0655 23.3193 28.942 23.4125 28.7977 23.4502L28.8735 23.7404ZM29.3997 23.3435L29.6582 23.4957C29.7353 23.3649 29.7854 23.2199 29.8056 23.0694L29.5082 23.0295L29.2109 22.9896C29.2013 23.0608 29.1777 23.1293 29.1412 23.1912L29.3997 23.3435ZM29.5082 23.0295L29.8056 23.0694C29.8257 22.9188 29.8156 22.7658 29.7757 22.6192L29.4862 22.698L29.1968 22.7768C29.2156 22.8461 29.2204 22.9185 29.2109 22.9896L29.5082 23.0295ZM29.4862 22.698L29.7757 22.6192C29.7358 22.4727 29.667 22.3356 29.5732 22.216L29.3371 22.4011L29.1011 22.5862C29.1454 22.6427 29.1779 22.7076 29.1968 22.7768L29.4862 22.698ZM29.3371 22.4011L29.5732 22.216C29.4795 22.0965 29.3628 21.997 29.23 21.9232L29.0844 22.1855L28.9388 22.4478C29.0016 22.4827 29.0568 22.5297 29.1011 22.5862L29.3371 22.4011ZM29.0844 22.1855L29.2324 21.9246L26.2374 20.2262L26.0895 20.4872L25.9415 20.7481L28.9364 22.4465L29.0844 22.1855ZM26.0895 20.4872L26.2411 20.746L29.5963 18.781L29.4447 18.5221L29.2931 18.2633L25.9379 20.2283L26.0895 20.4872ZM29.4447 18.5221L29.5946 18.782C29.7259 18.7062 29.8408 18.6051 29.9325 18.4844L29.6937 18.3029L29.4549 18.1213C29.4114 18.1785 29.357 18.2264 29.2948 18.2623L29.4447 18.5221ZM29.6937 18.3029L29.9325 18.4844C30.0243 18.3638 30.091 18.2261 30.1289 18.0793L29.8384 18.0043L29.548 17.9293C29.53 17.9989 29.4984 18.0641 29.4549 18.1213L29.6937 18.3029ZM29.8384 18.0043L30.1289 18.0793C30.1668 17.9326 30.175 17.7797 30.1532 17.6297L29.8563 17.673L29.5595 17.7163C29.5698 17.7874 29.5659 17.8598 29.548 17.9293L29.8384 18.0043ZM29.8563 17.673L30.1532 17.6297C30.1313 17.4798 30.0798 17.3357 30.0015 17.2058L29.7446 17.3606L29.4876 17.5155C29.5247 17.577 29.5491 17.6453 29.5595 17.7163L29.8563 17.673Z" fill="white" mask="url(#path-1-outside-1_166_1185)"/>
</g>
</g>
<defs>
<clipPath id="clip0_166_1185">
<rect width="32" height="32" fill="white"/>
</clipPath>
</defs>
</svg>
