<svg width="40" height="40" viewBox="0 0 40 40" fill="none" xmlns="http://www.w3.org/2000/svg">
<g id="icon">
<path id="Vector" d="M25.8281 8.50781H28.5312C29 8.50781 29.3555 8.15625 29.3555 7.68359C29.3555 7.21484 29.0039 6.85938 28.5312 6.85938H25.8281C25.3594 6.85938 25.0039 7.21094 25.0039 7.68359C25.0078 8.15625 25.418 8.50781 25.8281 8.50781ZM28.5937 9.39062H25.8906C25.4219 9.39062 25.0664 9.74219 25.0664 10.2148C25.0664 10.6836 25.418 11.0391 25.8906 11.0391H28.5937C29.0625 11.0391 29.418 10.6875 29.418 10.2148C29.4141 9.74219 29.0625 9.39062 28.5937 9.39062ZM28.5937 11.918H25.8906C25.4219 11.918 25.0664 12.2695 25.0664 12.7422C25.0664 13.2109 25.418 13.5664 25.8906 13.5664H28.5937C29.0625 13.5664 29.418 13.2148 29.418 12.7422C29.4141 12.2695 29.0625 11.918 28.5937 11.918ZM22.5742 24.9688V7.56641C22.5742 4.86328 20.3398 2.51172 17.7539 2.51172C15.1094 2.51172 12.9922 4.80469 12.9922 7.50781V24.8477C11.5234 26.2031 10.5859 28.0234 10.5859 30.1992C10.5859 34.2539 13.7617 37.4883 17.7578 37.4883C21.7539 37.4883 24.9297 34.1953 24.9297 30.1992C24.8672 28.0234 24.0469 26.3203 22.5742 24.9688ZM17.7539 33.5391C15.75 33.5391 14.0742 31.8594 14.0742 29.793C14.0742 28.7578 14.5273 27.7266 15.3008 27.0156L16.2695 26.1758V22.1719C16.2695 21.3984 16.9141 20.6875 17.7539 20.6875C18.5273 20.6875 19.1758 21.3984 19.1758 22.1719V26.2422L20.1445 27.082C20.9844 27.8555 21.4375 28.8242 21.4375 29.793C21.4375 31.8594 19.8242 33.5391 17.7539 33.5391Z" fill="white"/>
</g>
</svg>
