<svg width="24" height="24" viewBox="0 0 24 24" fill="none" xmlns="http://www.w3.org/2000/svg">
<g id="icon">
<path id="Vector" d="M3.40501 7.25101C3.16058 7.25044 2.91879 7.30156 2.69551 7.40101C2.37112 7.53672 2.08221 7.74507 1.85101 8.01001C1.75612 8.12482 1.67553 8.25075 1.61101 8.38501C1.54382 8.52094 1.49006 8.66312 1.45051 8.80951C1.38976 9.04055 1.34564 9.27565 1.31851 9.51301C1.30051 9.67651 1.28851 9.84901 1.27801 10.032C1.26751 10.2135 1.26001 10.407 1.25701 10.611C1.24951 11.0205 1.25101 11.4795 1.25101 12C1.25101 12.5205 1.24951 12.9795 1.25701 13.389C1.26001 13.593 1.26751 13.7865 1.27801 13.968C1.28701 14.151 1.30051 14.3235 1.31851 14.487C1.34564 14.7244 1.38976 14.9595 1.45051 15.1905C1.49217 15.3362 1.54586 15.4782 1.61101 15.615C1.67669 15.7486 1.75719 15.8744 1.85101 15.99C1.95751 16.1202 2.08172 16.2348 2.22001 16.3305C2.36708 16.4393 2.52673 16.5299 2.69551 16.6005C2.85093 16.6635 3.01295 16.7088 3.17851 16.7355C3.32729 16.7557 3.47809 16.7563 3.62701 16.737C3.7766 16.7196 3.92392 16.6864 4.06651 16.638C4.28975 16.5616 4.50646 16.4673 4.71451 16.356C4.85551 16.281 4.99951 16.197 5.14951 16.104C5.30101 16.011 5.46001 15.909 5.62501 15.7995C5.95501 15.579 6.31501 15.324 6.72601 15.0345C7.06651 14.7975 7.36801 14.5875 7.63501 14.3895C7.76851 14.292 7.89151 14.1975 8.01001 14.1045C8.12701 14.01 8.23801 13.9185 8.34001 13.8255C8.49294 13.6889 8.63535 13.541 8.76601 13.383C8.88837 13.2263 8.99254 13.0562 9.07651 12.876C9.1309 12.7537 9.17213 12.626 9.19951 12.495C9.26676 12.1684 9.26676 11.8316 9.19951 11.505C9.15976 11.3095 9.08886 11.1216 8.98951 10.9485C8.92403 10.8323 8.84876 10.7219 8.76451 10.6185C8.63433 10.4605 8.49243 10.3126 8.34001 10.176C8.23276 10.0798 8.12272 9.98675 8.01001 9.89701C7.88681 9.79868 7.76179 9.70266 7.63501 9.60901C7.36801 9.41401 7.06501 9.20401 6.72601 8.96401C6.31501 8.67601 5.95501 8.42101 5.62501 8.19901C5.46001 8.08951 5.30101 7.989 5.15101 7.896C5.00809 7.80762 4.86252 7.72358 4.71451 7.64401C4.50641 7.5328 4.28971 7.4385 4.06651 7.36201C3.9232 7.31616 3.77613 7.28304 3.62701 7.26301C3.55331 7.2546 3.47918 7.25059 3.40501 7.25101Z" fill="white"/>
<path id="Vector_2" d="M12 2.25C11.8011 2.25 11.6103 2.32902 11.4696 2.46967C11.329 2.61033 11.25 2.80109 11.25 3V6.501C11.25 6.69992 11.329 6.89068 11.4696 7.03133C11.6103 7.17199 11.8011 7.251 12 7.251C12.1989 7.251 12.3896 7.17199 12.5303 7.03133C12.671 6.89068 12.75 6.69992 12.75 6.501V3C12.7502 2.8681 12.7157 2.73846 12.6499 2.62416C12.584 2.50987 12.4892 2.41496 12.375 2.349C12.2608 2.2837 12.1315 2.24955 12 2.25ZM12 9.249C11.8011 9.249 11.6103 9.32802 11.4696 9.46867C11.329 9.60933 11.25 9.80009 11.25 9.999V14.001C11.25 14.1999 11.329 14.3907 11.4696 14.5313C11.6103 14.672 11.8011 14.751 12 14.751C12.1989 14.751 12.3896 14.672 12.5303 14.5313C12.671 14.3907 12.75 14.1999 12.75 14.001V9.999C12.7502 9.8671 12.7157 9.73746 12.6499 9.62316C12.584 9.50887 12.4892 9.41396 12.375 9.348C12.2608 9.2827 12.1315 9.24855 12 9.249ZM12 16.749C11.8011 16.749 11.6103 16.828 11.4696 16.9687C11.329 17.1093 11.25 17.3001 11.25 17.499V21C11.25 21.1989 11.329 21.3897 11.4696 21.5303C11.6103 21.671 11.8011 21.75 12 21.75C12.1989 21.75 12.3896 21.671 12.5303 21.5303C12.671 21.3897 12.75 21.1989 12.75 21V17.499C12.7501 17.3896 12.7262 17.2814 12.6801 17.1822C12.634 17.0829 12.5667 16.995 12.483 16.9245C12.3473 16.8115 12.1765 16.7494 12 16.749Z" fill="white"/>
<path id="Vector_3" d="M20.595 7.25103C20.446 7.24986 20.2975 7.26648 20.1525 7.30053C20.0027 7.33672 19.8558 7.38385 19.713 7.44153C19.569 7.50003 19.428 7.56754 19.2855 7.64404C19.138 7.72366 18.9929 7.8077 18.8505 7.89603C18.699 7.98903 18.54 8.09103 18.375 8.20053C18.045 8.42103 17.685 8.67604 17.274 8.96554C16.9335 9.20404 16.632 9.41253 16.365 9.61053C16.2382 9.70318 16.1132 9.7982 15.99 9.89553C15.8772 9.98524 15.7672 10.0783 15.66 10.1745C15.507 10.3111 15.3646 10.459 15.234 10.617C15.1119 10.7739 15.0077 10.944 14.9235 11.124C14.8691 11.2463 14.8278 11.374 14.8005 11.505C14.7333 11.8316 14.7333 12.1685 14.8005 12.495C14.8402 12.6906 14.9111 12.8785 15.0105 13.0515C15.0761 13.1677 15.1513 13.278 15.2355 13.3815C15.3656 13.5395 15.5075 13.6874 15.66 13.824C15.762 13.9185 15.873 14.01 15.99 14.103C16.1085 14.1975 16.2315 14.292 16.365 14.391C16.632 14.586 16.935 14.796 17.274 15.036C17.685 15.324 18.045 15.579 18.375 15.801C18.54 15.9105 18.699 16.011 18.849 16.104C19.0005 16.197 19.1445 16.281 19.2855 16.356C19.428 16.431 19.5705 16.5 19.7145 16.5585C19.8569 16.6159 20.0033 16.663 20.1525 16.6995C20.2978 16.7317 20.4461 16.7483 20.595 16.749C20.8394 16.7496 21.0812 16.6985 21.3045 16.599C21.629 16.4636 21.918 16.2552 22.149 15.99C22.2441 15.8754 22.3247 15.7494 22.389 15.615C22.4879 15.4079 22.5605 15.1892 22.605 14.964C22.638 14.811 22.6605 14.6505 22.68 14.487C22.6984 14.3145 22.7119 14.1414 22.7205 13.968C22.7295 13.7865 22.7355 13.593 22.74 13.389C22.7475 12.9261 22.7505 12.4631 22.749 12C22.749 11.4795 22.749 11.0205 22.74 10.611C22.7362 10.4174 22.7292 10.2239 22.719 10.0305C22.7104 9.85769 22.6969 9.68512 22.6785 9.51303C22.6616 9.35245 22.6371 9.19277 22.605 9.03453C22.5438 8.73699 22.4338 8.45163 22.2795 8.19003C22.1494 7.98494 21.9795 7.80796 21.78 7.66953C21.6328 7.56098 21.4731 7.47034 21.3045 7.39953C21.1491 7.33647 20.987 7.29118 20.8215 7.26453C20.7465 7.25553 20.6715 7.25103 20.5965 7.25103H20.595Z" fill="white"/>
</g>
</svg>
