<svg width="24" height="24" viewBox="0 0 24 24" fill="none" xmlns="http://www.w3.org/2000/svg">
<g id="icon">
<path id="Vector" d="M7.09582 7.25101C7.34025 7.25044 7.58203 7.30156 7.80532 7.40101C8.1297 7.53672 8.41862 7.74507 8.64982 8.01001C8.74471 8.12482 8.8253 8.25075 8.88982 8.38501C8.95701 8.52094 9.01076 8.66312 9.05032 8.80951C9.11107 9.04055 9.15518 9.27565 9.18232 9.51301C9.20032 9.67651 9.21232 9.84901 9.22282 10.032C9.23332 10.2135 9.24082 10.407 9.24382 10.611C9.25132 11.0205 9.24982 11.4795 9.24982 12C9.24982 12.5205 9.25132 12.9795 9.24382 13.389C9.24082 13.593 9.23332 13.7865 9.22282 13.968C9.21382 14.151 9.20032 14.3235 9.18232 14.487C9.15518 14.7244 9.11107 14.9595 9.05032 15.1905C9.00865 15.3362 8.95497 15.4782 8.88982 15.615C8.82414 15.7486 8.74363 15.8744 8.64982 15.99C8.54331 16.1202 8.41911 16.2348 8.28082 16.3305C8.13375 16.4393 7.97409 16.5299 7.80532 16.6005C7.64989 16.6635 7.48787 16.7088 7.32232 16.7355C7.17353 16.7557 7.02273 16.7563 6.87382 16.737C6.72423 16.7196 6.57691 16.6864 6.43432 16.638C6.21107 16.5616 5.99437 16.4673 5.78632 16.356C5.64532 16.281 5.50132 16.197 5.35132 16.104C5.19982 16.011 5.04082 15.909 4.87582 15.7995C4.54582 15.579 4.18582 15.324 3.77482 15.0345C3.43432 14.7975 3.13282 14.5875 2.86582 14.3895C2.73232 14.292 2.60932 14.1975 2.49082 14.1045C2.37382 14.01 2.26282 13.9185 2.16082 13.8255C2.00788 13.6889 1.86548 13.541 1.73482 13.383C1.61245 13.2263 1.50828 13.0562 1.42432 12.876C1.36992 12.7537 1.32869 12.626 1.30132 12.495C1.23406 12.1684 1.23406 11.8316 1.30132 11.505C1.34106 11.3095 1.41197 11.1216 1.51132 10.9485C1.57679 10.8323 1.65207 10.7219 1.73632 10.6185C1.8665 10.4605 2.0084 10.3126 2.16082 10.176C2.26806 10.0798 2.37811 9.98675 2.49082 9.89701C2.61401 9.79868 2.73903 9.70266 2.86582 9.60901C3.13282 9.41401 3.43582 9.20401 3.77482 8.96401C4.18582 8.67601 4.54582 8.42101 4.87582 8.19901C5.04082 8.08951 5.19982 7.989 5.34982 7.896C5.49274 7.80762 5.63831 7.72358 5.78632 7.64401C5.99442 7.5328 6.21111 7.4385 6.43432 7.36201C6.57763 7.31616 6.72469 7.28304 6.87382 7.26301C6.94751 7.2546 7.02164 7.25059 7.09582 7.25101Z" fill="white"/>
<path id="Vector_2" d="M12 2.25C11.8011 2.25 11.6103 2.32902 11.4697 2.46967C11.329 2.61033 11.25 2.80109 11.25 3V6.501C11.25 6.69992 11.329 6.89068 11.4697 7.03133C11.6103 7.17199 11.8011 7.251 12 7.251C12.1989 7.251 12.3897 7.17199 12.5303 7.03133C12.671 6.89068 12.75 6.69992 12.75 6.501V3C12.7503 2.8681 12.7157 2.73846 12.6499 2.62416C12.5841 2.50987 12.4892 2.41496 12.375 2.349C12.2608 2.2837 12.1315 2.24955 12 2.25ZM12 9.249C11.8011 9.249 11.6103 9.32802 11.4697 9.46867C11.329 9.60933 11.25 9.80009 11.25 9.999V14.001C11.25 14.1999 11.329 14.3907 11.4697 14.5313C11.6103 14.672 11.8011 14.751 12 14.751C12.1989 14.751 12.3897 14.672 12.5303 14.5313C12.671 14.3907 12.75 14.1999 12.75 14.001V9.999C12.7503 9.8671 12.7157 9.73746 12.6499 9.62316C12.5841 9.50887 12.4892 9.41396 12.375 9.348C12.2608 9.2827 12.1315 9.24855 12 9.249ZM12 16.749C11.8011 16.749 11.6103 16.828 11.4697 16.9687C11.329 17.1093 11.25 17.3001 11.25 17.499V21C11.25 21.1989 11.329 21.3897 11.4697 21.5303C11.6103 21.671 11.8011 21.75 12 21.75C12.1989 21.75 12.3897 21.671 12.5303 21.5303C12.671 21.3897 12.75 21.1989 12.75 21V17.499C12.7501 17.3896 12.7263 17.2814 12.6801 17.1822C12.634 17.0829 12.5667 16.995 12.483 16.9245C12.3474 16.8115 12.1765 16.7494 12 16.749Z" fill="white"/>
<path id="Vector_3" d="M16.9045 7.25103C17.0535 7.24986 17.202 7.26648 17.347 7.30053C17.4968 7.33672 17.6437 7.38385 17.7865 7.44153C17.9305 7.50003 18.0715 7.56754 18.214 7.64404C18.3615 7.72366 18.5066 7.8077 18.649 7.89603C18.8005 7.98903 18.9595 8.09103 19.1245 8.20053C19.4545 8.42103 19.8145 8.67604 20.2255 8.96554C20.566 9.20404 20.8675 9.41253 21.1345 9.61053C21.2613 9.70318 21.3863 9.7982 21.5095 9.89553C21.6223 9.98524 21.7323 10.0783 21.8395 10.1745C21.9925 10.3111 22.1349 10.459 22.2655 10.617C22.3876 10.7739 22.4917 10.944 22.576 11.124C22.6304 11.2463 22.6716 11.374 22.699 11.505C22.7662 11.8316 22.7662 12.1685 22.699 12.495C22.6593 12.6906 22.5884 12.8785 22.489 13.0515C22.4234 13.1677 22.3481 13.278 22.264 13.3815C22.1339 13.5395 21.992 13.6874 21.8395 13.824C21.7375 13.9185 21.6265 14.01 21.5095 14.103C21.391 14.1975 21.268 14.292 21.1345 14.391C20.8675 14.586 20.5645 14.796 20.2255 15.036C19.8145 15.324 19.4545 15.579 19.1245 15.801C18.9595 15.9105 18.8005 16.011 18.6505 16.104C18.499 16.197 18.355 16.281 18.214 16.356C18.0715 16.431 17.929 16.5 17.785 16.5585C17.6425 16.6159 17.4962 16.663 17.347 16.6995C17.2017 16.7317 17.0533 16.7483 16.9045 16.749C16.6601 16.7496 16.4183 16.6985 16.195 16.599C15.8705 16.4636 15.5815 16.2552 15.3505 15.99C15.2554 15.8754 15.1748 15.7494 15.1105 15.615C15.0116 15.4079 14.939 15.1892 14.8945 14.964C14.8615 14.811 14.839 14.6505 14.8195 14.487C14.8011 14.3145 14.7876 14.1414 14.779 13.968C14.77 13.7865 14.764 13.593 14.7595 13.389C14.7519 12.9261 14.7489 12.4631 14.7505 12C14.7505 11.4795 14.7505 11.0205 14.7595 10.611C14.7633 10.4174 14.7703 10.2239 14.7805 10.0305C14.7891 9.85769 14.8026 9.68512 14.821 9.51303C14.8378 9.35245 14.8624 9.19277 14.8945 9.03453C14.9556 8.73699 15.0656 8.45163 15.22 8.19003C15.3501 7.98494 15.5199 7.80796 15.7195 7.66953C15.8667 7.56098 16.0264 7.47034 16.195 7.39953C16.3504 7.33647 16.5124 7.29118 16.678 7.26453C16.753 7.25553 16.828 7.25103 16.903 7.25103H16.9045Z" fill="white"/>
</g>
</svg>
