<svg width="32" height="32" viewBox="0 0 32 32" fill="none" xmlns="http://www.w3.org/2000/svg">
<g id="icon 1">
<path id="Vector" d="M30.328 14.0728C30.364 14 30.364 13.8909 30.4 13.8182V4.61821C30.4 4.58184 30.364 4.54548 30.364 4.47275C30.076 3.20002 29.104 2.40002 27.772 2.40002H4.22798C2.71598 2.40002 1.59998 3.49093 1.59998 5.01821V13.3818C1.59998 13.6364 1.63598 13.8546 1.67198 14.1091C1.95998 15.2728 2.96798 16 4.22798 16H27.916C28.888 15.9273 29.644 15.4909 30.112 14.5818C30.22 14.4364 30.256 14.2546 30.328 14.0728ZM6.06398 10.9091H26.08C26.476 10.9091 26.764 11.0546 26.944 11.4182C27.016 11.5273 27.016 11.6728 27.016 11.8182C27.016 11.9637 26.98 12.0728 26.908 12.2182C26.836 12.3273 26.728 12.4364 26.62 12.5091C26.512 12.5818 26.368 12.6182 26.224 12.6546H6.02798C5.88398 12.6546 5.73998 12.6546 5.59598 12.6182C5.41598 12.5818 5.23598 12.4364 5.12798 12.2909C5.01998 12.1091 4.98398 11.9273 4.98398 11.7091C5.01998 11.5273 5.09198 11.3091 5.23598 11.2C5.37998 11.0546 5.55998 10.9818 5.77598 10.9455H5.95598C5.99198 10.9091 6.02798 10.9091 6.06398 10.9091ZM22.192 7.78184C22.336 7.63639 22.552 7.5273 22.768 7.5273C22.984 7.5273 23.2 7.60002 23.344 7.78184C23.488 7.9273 23.596 8.14548 23.596 8.36366C23.596 8.47275 23.56 8.58184 23.524 8.69093C23.488 8.80002 23.416 8.90911 23.344 8.98184C23.272 9.05457 23.164 9.1273 23.056 9.16366C22.948 9.20002 22.84 9.23639 22.732 9.23639C22.516 9.23639 22.3 9.1273 22.156 8.98184C22.012 8.83639 21.904 8.61821 21.904 8.40002C21.976 8.14548 22.048 7.9273 22.192 7.78184ZM26.764 8.94548C26.62 9.09093 26.404 9.20002 26.188 9.20002C25.972 9.20002 25.756 9.1273 25.612 8.94548C25.468 8.80002 25.36 8.58184 25.36 8.36366C25.36 8.25457 25.396 8.14548 25.432 8.03639C25.468 7.9273 25.54 7.81821 25.612 7.74548C25.684 7.67275 25.792 7.60002 25.9 7.56366C26.008 7.5273 26.116 7.49093 26.224 7.49093C26.44 7.49093 26.656 7.60002 26.8 7.74548C26.944 7.89093 27.052 8.10912 27.052 8.3273C27.016 8.58184 26.944 8.80002 26.764 8.94548Z" fill="white"/>
<path id="Vector_2" d="M7.44167 18.6645L9.04219 17.051C9.11333 16.9793 9.18446 16.9076 9.29117 16.8718C9.39787 16.8359 9.50457 16.8 9.5757 16.8C9.6824 16.8 9.7891 16.8359 9.86024 16.8718C9.96694 16.9076 10.0381 16.9793 10.1092 17.051C10.1803 17.1227 10.2515 17.1944 10.287 17.302C10.3226 17.4096 10.3582 17.5171 10.3582 17.5888C10.3582 17.6964 10.3226 17.804 10.287 17.8757C10.2515 17.9832 10.1803 18.055 10.1092 18.1267L8.50869 19.7401C8.43755 19.8118 8.36642 19.8835 8.25972 19.9194C8.15302 19.9552 8.04631 19.9911 7.97518 19.9911C7.76178 19.9911 7.58394 19.9194 7.44167 19.776C7.37054 19.7043 7.2994 19.6325 7.26384 19.525C7.22827 19.4174 7.1927 19.3099 7.1927 19.2381C7.1927 19.1306 7.22827 19.023 7.26384 18.9513C7.33497 18.8079 7.37054 18.7362 7.44167 18.6645ZM29.5645 22.4292C29.5645 22.3216 29.5289 22.2141 29.4933 22.1065C29.4578 21.9989 29.3866 21.9272 29.3155 21.8555C29.2444 21.7838 29.1376 21.7121 29.0665 21.6762C28.9598 21.6404 28.8531 21.6045 28.7464 21.6045H25.5809C25.4742 21.6045 25.3675 21.6045 25.2608 21.6762C25.1541 21.7121 25.083 21.7838 25.0119 21.8555C24.9407 21.9272 24.8696 22.0348 24.834 22.1065C24.7985 22.2141 24.7629 22.3216 24.7629 22.4292C24.7629 22.6443 24.8696 22.8594 25.0119 23.0028C25.1541 23.1463 25.3675 23.218 25.5809 23.218H26.7902C26.8614 23.218 26.9325 23.218 27.0036 23.2538C20.4593 30.102 10.2515 29.1698 4.95197 23.218H6.26795C6.80146 23.218 7.15713 22.8953 7.15713 22.3933C7.15713 21.9272 6.80146 21.6045 6.26795 21.6045H3.49372C2.96021 21.6045 2.49783 21.7121 2.4267 22.2499C2.39113 22.5367 2.39113 23.5048 2.4267 24.4729V25.8353C2.49783 25.9429 2.56897 26.0863 2.67567 26.1939C2.88907 26.409 3.17361 26.5166 3.49372 26.3732C3.60042 26.3373 3.74269 26.2297 3.84939 26.0863C3.95609 25.9429 3.99166 25.7995 3.99166 25.6202V24.939V24.5804C7.37054 27.879 11.3185 29.6 15.9778 29.6C20.6371 29.6 24.5851 27.8432 27.9639 24.5804V25.5844C27.9639 25.7995 28.0351 26.0146 28.2129 26.158C28.3552 26.3014 28.5686 26.3732 28.782 26.3732C28.9954 26.3732 29.1732 26.3014 29.3511 26.158C29.4933 26.0146 29.6 25.7995 29.6 25.6202C29.5645 24.5804 29.5645 23.5048 29.5645 22.4292Z" fill="white"/>
<path id="Vector_3" d="M10.4596 22.1812L12.1129 17.3023C12.1488 17.1947 12.1847 17.1229 12.2566 17.0512C12.3285 16.9794 12.4004 16.9077 12.5082 16.8718C12.616 16.8359 12.6879 16.8 12.7957 16.8C12.9036 16.8 13.0114 16.8 13.0833 16.8359C13.1911 16.8718 13.263 16.9077 13.3349 16.9794C13.4067 17.0512 13.4786 17.1229 13.5146 17.2305C13.5505 17.3382 13.5864 17.4099 13.5864 17.5175C13.5864 17.6252 13.5864 17.7328 13.5505 17.8045L11.8972 22.6835C11.8613 22.827 11.7534 22.9705 11.6097 23.0781C11.4659 23.1857 11.3222 23.2216 11.1425 23.2216C11.0706 23.2216 10.9627 23.2216 10.8909 23.1857C10.6752 23.114 10.5315 22.9705 10.4236 22.7911C10.3877 22.5758 10.3877 22.3606 10.4596 22.1812ZM15.4554 17.0153C15.5991 16.8718 15.8148 16.8 16.0304 16.8C16.2461 16.8 16.4258 16.8718 16.6055 17.0153C16.7492 17.1588 16.8211 17.374 16.8211 17.5893V24.0108C16.8211 24.2261 16.7492 24.4054 16.6055 24.5848C16.4617 24.7283 16.2461 24.8 16.0304 24.8C15.8148 24.8 15.6351 24.7283 15.4554 24.5848C15.3116 24.4413 15.2397 24.2261 15.2397 24.0108V17.5893C15.2397 17.3382 15.3116 17.1588 15.4554 17.0153ZM18.6901 16.9794C18.7619 16.9077 18.8698 16.8718 18.9416 16.8359C19.0495 16.8 19.1573 16.8 19.2651 16.8C19.3729 16.8 19.4808 16.8359 19.5526 16.8718C19.6605 16.9077 19.7323 16.9794 19.8042 17.0512C19.8761 17.1229 19.9121 17.2305 19.948 17.3023L21.5294 22.0736C21.6013 22.2888 21.5653 22.5041 21.4935 22.6835C21.3856 22.8628 21.2419 23.0063 21.0262 23.0781C20.9543 23.1139 20.8465 23.114 20.7746 23.114C20.5949 23.114 20.4512 23.0781 20.3074 22.9705C20.1636 22.8628 20.0558 22.7193 20.0199 22.5758L18.4385 17.8045C18.4025 17.6969 18.4025 17.5893 18.4025 17.5175C18.4025 17.4099 18.4385 17.3023 18.4744 17.2305C18.5463 17.1229 18.6182 17.0512 18.6901 16.9794ZM23.6859 19.9211C23.578 19.8853 23.5062 19.8135 23.4343 19.7418L21.8169 18.1274C21.745 18.0557 21.6732 17.9839 21.6372 17.8763C21.6013 17.7687 21.5653 17.661 21.5653 17.5893C21.5653 17.4817 21.6013 17.374 21.6372 17.3023C21.6732 17.1947 21.745 17.1229 21.8169 17.0512C21.9607 16.9077 22.1763 16.8359 22.392 16.8359C22.6076 16.8359 22.7873 16.9077 22.9311 17.087L24.5484 18.7014C24.6203 18.7731 24.6922 18.8449 24.7281 18.9525C24.7641 19.0601 24.8 19.1678 24.8 19.2395C24.8 19.3471 24.7641 19.4548 24.7281 19.5265C24.6922 19.5983 24.6203 19.7059 24.5484 19.7776C24.4047 19.9211 24.189 19.9929 24.0093 19.9929C23.9015 19.957 23.7937 19.957 23.6859 19.9211Z" fill="white"/>
</g>
</svg>
