<svg width="20" height="20" viewBox="0 0 20 20" fill="none" xmlns="http://www.w3.org/2000/svg">
<g id="icon ">
<path id="Vector" d="M13.023 17.0833C13.7317 17.0833 14.3875 16.7082 14.7468 16.0973L17.737 11.014C18.1051 10.3881 18.1051 9.61186 17.737 8.98597L14.7468 3.90264C14.3875 3.29175 13.7317 2.91666 13.023 2.91666H6.97738C6.26866 2.91666 5.61286 3.29173 5.25352 3.9026L2.26326 8.98593C1.89508 9.61184 1.89508 10.3881 2.26326 11.014L5.25352 16.0974C5.61286 16.7082 6.26866 17.0833 6.97738 17.0833H13.023Z" stroke="white" stroke-width="2" stroke-linejoin="round"/>
<path id="Vector_2" d="M10.0001 12.0833C11.1507 12.0833 12.0834 11.1506 12.0834 9.99999C12.0834 8.84941 11.1507 7.91666 10.0001 7.91666C8.8495 7.91666 7.91675 8.84941 7.91675 9.99999C7.91675 11.1506 8.8495 12.0833 10.0001 12.0833Z" stroke="white" stroke-width="2" stroke-linejoin="round"/>
</g>
</svg>
