<svg width="16" height="16" viewBox="0 0 16 16" fill="none" xmlns="http://www.w3.org/2000/svg">
<g id="icon">
<path id="Vector" d="M9.24804 2.0691L10.8291 3.47851C10.8869 3.02207 11.2964 2.6683 11.7929 2.6683H12.2064C12.7425 2.6683 13.1771 3.08076 13.1771 3.58957V5.57147L15.0081 7.20358C15.2528 7.42167 15.2648 7.78668 15.035 8.01886C14.9782 8.07628 14.9096 8.12205 14.8334 8.15333C14.7572 8.18462 14.6751 8.20076 14.592 8.20076H13.1686V12.6697C13.1686 13.6253 12.3523 14.4 11.3454 14.4H9.4811V11.7795C9.4811 11.0031 8.81789 10.3737 7.9998 10.3737C7.18989 10.3737 6.53179 10.9906 6.5187 11.7562L6.5185 11.7795V14.4H4.65423C3.64727 14.4 2.83098 13.6253 2.83098 12.6697L2.83096 8.20076H1.40755C1.07192 8.20076 0.799805 7.94253 0.799805 7.62399C0.799804 7.54521 0.816811 7.46726 0.849776 7.39495C0.882741 7.32265 0.930965 7.25752 0.991474 7.20358L6.75156 2.0691C7.45323 1.44364 8.54637 1.44364 9.24804 2.0691Z" fill="white"/>
</g>
</svg>
