<svg width="24" height="24" viewBox="0 0 24 24" fill="none" xmlns="http://www.w3.org/2000/svg">
<g id="Frame">
<path id="Subtract" d="M12 2C17.5228 2.00011 22 6.47723 22 12C22 14.5427 16.5633 13.7356 15 15.5C13.168 17.568 14.9798 21.9998 12 22C6.47715 22 2 17.5229 2 12C2.00001 6.47716 6.47716 2 12 2ZM8.5 13.75C7.53358 13.7501 6.75001 14.5336 6.75 15.5C6.75 16.4665 7.53357 17.2499 8.5 17.25C9.46652 17.25 10.25 16.4665 10.25 15.5C10.25 14.5335 9.46651 13.75 8.5 13.75ZM8 7.25C7.03348 7.25 6.25 8.03348 6.25 9C6.25 9.96652 7.03348 10.75 8 10.75C8.96643 10.7499 9.75 9.96646 9.75 9C9.75 8.03354 8.96643 7.25011 8 7.25ZM14 5.25C13.0335 5.25 12.25 6.03348 12.25 7C12.25 7.96651 13.0335 8.75 14 8.75C14.9664 8.74989 15.75 7.96644 15.75 7C15.75 6.03354 14.9664 5.25011 14 5.25Z" fill="white" fill-opacity="0.5"/>
</g>
</svg>
