<svg width="24" height="24" viewBox="0 0 24 24" fill="none" xmlns="http://www.w3.org/2000/svg">
<g id="icon ">
<path id="Vector" d="M10.8048 20.9389C11.4841 21.5819 12.5159 21.5819 13.1952 20.9389C15.3122 18.935 19.5 14.3571 19.5 9.5C19.5 5.35785 16.1421 2 12 2C7.85785 2 4.5 5.35785 4.5 9.5C4.5 14.3571 8.68778 18.935 10.8048 20.9389Z" stroke="white" stroke-width="2" stroke-linejoin="round"/>
<path id="Vector_2" d="M12 12.5C13.6568 12.5 15 11.1568 15 9.5C15 7.84315 13.6568 6.5 12 6.5C10.3432 6.5 9 7.84315 9 9.5C9 11.1568 10.3432 12.5 12 12.5Z" stroke="white" stroke-width="2" stroke-linejoin="round"/>
</g>
</svg>
