<svg width="20" height="20" viewBox="0 0 20 20" fill="none" xmlns="http://www.w3.org/2000/svg">
<g id="icon ">
<path id="Vector" d="M18.325 8.8C18.25 8.675 18.175 8.55 18.075 8.45C16.35 6.5 14.625 4.575 12.925 2.625C12.875 2.55 12.825 2.45 12.825 2.375V1.325V0.75C12.825 0.275 12.55 0 12.075 0H7.97501C7.50001 0 7.22501 0.275 7.22501 0.75V2.4C7.22501 2.475 7.20001 2.575 7.12501 2.625C5.37501 4.6 3.62501 6.575 1.87501 8.525C1.77501 8.625 1.70001 8.725 1.67501 8.85C1.62501 8.975 1.60001 9.1 1.60001 9.25V11.125C1.60001 11.6 1.87501 11.9 2.37501 11.9H4.47501C4.57501 11.9 4.65001 11.925 4.70001 12.025C5.72501 14.2 7.97501 15.55 10.375 15.375C12.675 15.2 14.325 14.05 15.35 12C15.4 11.9 15.45 11.875 15.55 11.875H17.575C18 11.875 18.3 11.725 18.45 11.3V8.9C18.375 8.925 18.35 8.875 18.325 8.8ZM10.1 14.025C8.45001 14.05 7.17501 13.325 6.20001 11.925H13.825C12.9 13.275 11.675 14 10.1 14.025ZM5.12501 15.5C4.75001 15.85 4.37501 16.225 4.02501 16.6C3.95001 16.675 3.92501 16.775 3.87501 16.875C3.85001 16.925 3.85001 16.975 3.82501 17.025C3.87501 17.325 4.00001 17.55 4.25001 17.675C4.50001 17.8 4.77501 17.775 5.00001 17.6C5.37501 17.25 5.75001 16.875 6.10001 16.5C6.35001 16.225 6.30001 15.825 6.05001 15.575C5.77501 15.3 5.37501 15.275 5.12501 15.5ZM15.975 16.525L15.8 16.35L15 15.55C14.7 15.275 14.275 15.275 14 15.55C13.725 15.825 13.725 16.25 14.025 16.55C14.35 16.875 14.675 17.225 15.025 17.525C15.25 17.75 15.525 17.775 15.8 17.65C16.075 17.525 16.2 17.3 16.2 17.025C16.2 16.925 16.175 16.85 16.15 16.75C16.075 16.675 16.025 16.6 15.975 16.525ZM10.5 17.4C10.425 17.325 10.35 17.275 10.275 17.25C10.2 17.225 10.1 17.2 10 17.2C9.62501 17.2 9.32501 17.5 9.32501 17.9V19.3C9.32501 19.7 9.65001 20 10.025 20C10.125 20 10.2 19.975 10.3 19.95C10.375 19.925 10.45 19.875 10.525 19.8C10.6 19.725 10.65 19.65 10.675 19.575C10.7 19.5 10.725 19.4 10.725 19.3V17.9C10.725 17.8 10.7 17.725 10.675 17.625C10.625 17.525 10.575 17.45 10.5 17.4Z" fill="white"/>
</g>
</svg>
