<svg width="32" height="32" viewBox="0 0 32 32" fill="none" xmlns="http://www.w3.org/2000/svg">
<path d="M13.2891 23.5736C13.2891 24.3871 12.5547 25.0498 11.6445 25.0498C10.7344 25.0498 10 24.3906 10 23.5736C10 22.7567 11.6445 21 11.6445 21C11.6445 21 13.2891 22.7602 13.2891 23.5736ZM13.3438 29.5238C13.3438 30.3373 12.6094 31 11.6992 31C10.7891 31 10.0547 30.3408 10.0547 29.5238C10.0547 28.7069 11.6992 26.9502 11.6992 26.9502C11.6992 26.9502 13.3438 28.7104 13.3438 29.5238Z" fill="#94B0FF"/>
<path d="M24.5828 8.19669C27.5739 8.19669 30 10.6783 30 13.6397C30 16.4191 27.8398 18.7353 25.1145 19H7.23442C4.17685 18.5699 2 15.9062 2 12.7629C2 9.81802 4.04392 7.35294 6.80237 6.69118C7.6997 3.46507 10.7573 1 14.2801 1C18.5341 1 21.8742 4.54044 21.8742 8.7261C21.8742 8.82537 21.8576 8.90809 21.8576 9.0239C22.6552 8.56066 23.5858 8.19669 24.5828 8.19669Z" fill="white"/>
<path d="M22.7253 25.5771H20.8557C20.6872 25.5771 20.5585 25.4295 20.5859 25.2686L21.2515 21.3097C21.2953 21.0504 20.9653 20.8935 20.7803 21.085L16.0741 25.9747C15.9111 26.145 16.0344 26.4229 16.2741 26.4229H18.1437C18.3122 26.4229 18.4409 26.5705 18.4135 26.7314L17.7479 30.6903C17.704 30.9496 18.0341 31.1065 18.219 30.915L22.9253 26.0253C23.0896 25.855 22.965 25.5771 22.7253 25.5771Z" fill="#FDB151"/>
</svg>
