<svg width="32" height="32" viewBox="0 0 32 32" fill="none" xmlns="http://www.w3.org/2000/svg">
<path d="M24.5828 8.19669C27.5739 8.19669 30 10.6783 30 13.6397C30 16.4191 27.8398 18.7353 25.1145 19H7.23442C4.17685 18.5699 2 15.9062 2 12.7629C2 9.81802 4.04392 7.35294 6.80237 6.69118C7.6997 3.46507 10.7573 1 14.2801 1C18.5341 1 21.8742 4.54044 21.8742 8.7261C21.8742 8.82537 21.8576 8.90809 21.8576 9.0239C22.6552 8.56066 23.5858 8.19669 24.5828 8.19669Z" fill="white"/>
<path d="M9.14551 21.6179H8.18737L8.66644 20.7653C8.7978 20.5314 8.72053 20.23 8.49259 20.0912L8.45009 20.0674C8.22214 19.9326 7.92852 20.0119 7.7933 20.2459L7.31422 21.0984L6.83515 20.2459C6.70379 20.0119 6.41017 19.9286 6.17836 20.0674L6.13586 20.0912C5.90792 20.226 5.82679 20.5274 5.96201 20.7653L6.44108 21.6179H5.48293C5.22022 21.6179 5.00386 21.8399 5.00386 22.1096V22.1572C5.00386 22.4268 5.22022 22.6489 5.48293 22.6489H6.44108L5.96201 23.5014C5.83065 23.7354 5.90792 24.0368 6.13586 24.1756L6.17836 24.1994C6.40631 24.3342 6.69993 24.2549 6.83515 24.0209L7.31422 23.1684L7.7933 24.0209C7.92465 24.2549 8.21828 24.3381 8.45009 24.1994L8.49259 24.1756C8.72053 24.0407 8.80166 23.7394 8.66644 23.5014L8.18737 22.6489H9.14551C9.40823 22.6489 9.62458 22.4268 9.62458 22.1572V22.1096C9.62458 21.8399 9.40823 21.6179 9.14551 21.6179ZM9.14551 28.3471H8.18737L8.66644 27.4946C8.7978 27.2606 8.72053 26.9593 8.49259 26.8205L8.45009 26.7967C8.22214 26.6619 7.92852 26.7412 7.7933 26.9751L7.31422 27.8277L6.83129 26.9791C6.69993 26.7451 6.40631 26.6619 6.1745 26.8006L6.132 26.8244C5.90405 26.9593 5.82292 27.2606 5.95814 27.4986L6.43721 28.3511H5.47907C5.21636 28.3511 5 28.5732 5 28.8428V28.8904C5 29.1601 5.21636 29.3821 5.47907 29.3821H6.43721L5.95814 30.2347C5.82679 30.4686 5.90405 30.77 6.132 30.9088L6.1745 30.9326C6.40244 31.0674 6.69607 30.9881 6.83129 30.7541L7.31036 29.9016L7.78943 30.7541C7.92079 30.9881 8.21441 31.0714 8.44622 30.9326L8.48872 30.9088C8.71667 30.774 8.7978 30.4726 8.66258 30.2347L8.18351 29.3821H9.14165C9.40437 29.3821 9.62072 29.1601 9.62072 28.8904V28.8428C9.62458 28.5692 9.40823 28.3471 9.14551 28.3471ZM14.8332 21.6179H13.8751L14.3541 20.7653C14.4855 20.5314 14.4082 20.23 14.1803 20.0912L14.1378 20.0674C13.9098 19.9326 13.6162 20.0119 13.481 20.2459L13.0019 21.0984L12.5228 20.2459C12.3915 20.0119 12.0979 19.9286 11.866 20.0674L11.8235 20.0912C11.5956 20.226 11.5145 20.5274 11.6497 20.7653L12.1288 21.6179H11.1706C10.9079 21.6179 10.6915 21.8399 10.6915 22.1096V22.1572C10.6915 22.4268 10.9079 22.6489 11.1706 22.6489H12.1288L11.6497 23.5014C11.5183 23.7354 11.5956 24.0368 11.8235 24.1756L11.866 24.1994C12.094 24.3342 12.3876 24.2549 12.5228 24.0209L13.0019 23.1684L13.481 24.0209C13.6123 24.2549 13.906 24.3381 14.1378 24.1994L14.1803 24.1756C14.4082 24.0407 14.4893 23.7394 14.3541 23.5014L13.8751 22.6489H14.8332C15.0959 22.6489 15.3123 22.4268 15.3123 22.1572V22.1096C15.3123 21.8399 15.0959 21.6179 14.8332 21.6179ZM14.8332 28.3471H13.8751L14.3541 27.4946C14.4855 27.2606 14.4082 26.9593 14.1803 26.8205L14.1378 26.7967C13.9098 26.6619 13.6162 26.7412 13.481 26.9751L13.0019 27.8277L12.5228 26.9791C12.3915 26.7451 12.0979 26.6619 11.866 26.8006L11.8235 26.8244C11.5956 26.9593 11.5145 27.2606 11.6497 27.4986L12.1288 28.3511H11.1706C10.9079 28.3511 10.6915 28.5732 10.6915 28.8428V28.8904C10.6915 29.1601 10.9079 29.3821 11.1706 29.3821H12.1288L11.6497 30.2347C11.5183 30.4686 11.5956 30.77 11.8235 30.9088L11.866 30.9326C12.094 31.0674 12.3876 30.9881 12.5228 30.7541L13.0019 29.9016L13.481 30.7541C13.6123 30.9881 13.906 31.0714 14.1378 30.9326L14.1803 30.9088C14.4082 30.774 14.4893 30.4726 14.3541 30.2347L13.8751 29.3821H14.8332C15.0959 29.3821 15.3123 29.1601 15.3123 28.8904V28.8428C15.3123 28.5692 15.0959 28.3471 14.8332 28.3471ZM20.5209 21.6179H19.5627L20.0418 20.7653C20.1732 20.5314 20.0959 20.23 19.868 20.0912L19.8255 20.0674C19.5975 19.9326 19.3039 20.0119 19.1687 20.2459L18.6896 21.0984L18.2105 20.2459C18.0792 20.0119 17.7855 19.9286 17.5537 20.0674L17.5112 20.0912C17.2833 20.226 17.2021 20.5274 17.3374 20.7653L17.8164 21.6179H16.8583C16.5956 21.6179 16.3792 21.8399 16.3792 22.1096V22.1572C16.3792 22.4268 16.5956 22.6489 16.8583 22.6489H17.8164L17.3374 23.5014C17.206 23.7354 17.2833 24.0368 17.5112 24.1756L17.5537 24.1994C17.7817 24.3342 18.0753 24.2549 18.2105 24.0209L18.6896 23.1684L19.1687 24.0209C19.3 24.2549 19.5936 24.3381 19.8255 24.1994L19.868 24.1756C20.0959 24.0407 20.177 23.7394 20.0418 23.5014L19.5627 22.6529H20.5209C20.7836 22.6529 20.9999 22.4308 20.9999 22.1611V22.1136C21.0038 21.8399 20.7875 21.6179 20.5209 21.6179ZM20.5209 28.3471H19.5627L20.0418 27.4946C20.1732 27.2606 20.0959 26.9593 19.868 26.8205L19.8255 26.7967C19.5975 26.6619 19.3039 26.7412 19.1687 26.9751L18.6896 27.8277L18.2105 26.9791C18.0792 26.7451 17.7855 26.6619 17.5537 26.8006L17.5151 26.8205C17.2871 26.9553 17.206 27.2567 17.3412 27.4946L17.8203 28.3471H16.8583C16.5956 28.3471 16.3792 28.5692 16.3792 28.8389V28.8864C16.3792 29.1561 16.5956 29.3781 16.8583 29.3781H17.8164L17.3374 30.2307C17.206 30.4647 17.2833 30.766 17.5112 30.9048L17.5537 30.9286C17.7817 31.0634 18.0753 30.9841 18.2105 30.7502L18.6896 29.8976L19.1687 30.7502C19.3 30.9841 19.5936 31.0674 19.8255 30.9286L19.868 30.9048C20.0959 30.77 20.177 30.4686 20.0418 30.2307L19.5627 29.3821H20.5209C20.7836 29.3821 20.9999 29.1601 20.9999 28.8904V28.8428C21.0038 28.5692 20.7875 28.3471 20.5209 28.3471Z" fill="#94B0FF"/>
<path d="M25.5628 21.6179H26.5209C26.7875 21.6179 27.0039 21.8399 27 22.1136V22.1611C27 22.4308 26.7836 22.6529 26.5209 22.6529H25.5628L26.0419 23.5014C26.1771 23.7394 26.0959 24.0407 25.868 24.1756L25.8255 24.1994C25.5937 24.3381 25.3001 24.2549 25.1687 24.0209L24.6896 23.1684L24.2106 24.0209C24.0753 24.2549 23.7817 24.3342 23.5538 24.1994L23.5113 24.1756C23.2833 24.0368 23.2061 23.7354 23.3374 23.5014L23.8165 22.6489H22.8583C22.5956 22.6489 22.3793 22.4268 22.3793 22.1572V22.1096C22.3793 21.8399 22.5956 21.6179 22.8583 21.6179H23.8165L23.3374 20.7653C23.2022 20.5274 23.2833 20.226 23.5113 20.0912L23.5538 20.0674C23.7856 19.9286 24.0792 20.0119 24.2106 20.2459L24.6896 21.0984L25.1687 20.2459C25.3039 20.0119 25.5976 19.9326 25.8255 20.0674L25.868 20.0912C26.0959 20.23 26.1732 20.5314 26.0419 20.7653L25.5628 21.6179Z" fill="#94B0FF"/>
<path d="M25.5628 28.3471H26.5209C26.7875 28.3471 27.0039 28.5692 27 28.8428V28.8904C27 29.1601 26.7836 29.3821 26.5209 29.3821H25.5628L26.0419 30.2307C26.1771 30.4686 26.0959 30.77 25.868 30.9048L25.8255 30.9286C25.5937 31.0674 25.3001 30.9841 25.1687 30.7502L24.6896 29.8976L24.2106 30.7502C24.0753 30.9841 23.7817 31.0634 23.5538 30.9286L23.5113 30.9048C23.2833 30.766 23.2061 30.4647 23.3374 30.2307L23.8165 29.3781H22.8583C22.5956 29.3781 22.3793 29.1561 22.3793 28.8864V28.8389C22.3793 28.5692 22.5956 28.3471 22.8583 28.3471H23.8204L23.3413 27.4946C23.2061 27.2567 23.2872 26.9553 23.5151 26.8205L23.5538 26.8006C23.7856 26.6619 24.0792 26.7451 24.2106 26.9791L24.6896 27.8277L25.1687 26.9751C25.3039 26.7412 25.5976 26.6619 25.8255 26.7967L25.868 26.8205C26.0959 26.9593 26.1732 27.2606 26.0419 27.4946L25.5628 28.3471Z" fill="#94B0FF"/>
</svg>
