<svg width="32" height="32" viewBox="0 0 32 32" fill="none" xmlns="http://www.w3.org/2000/svg">
<path d="M28.8867 21.4065C29.3637 20.2684 28.2559 19.1945 27.0295 19.2274C26.9338 19.2299 26.8373 19.2307 26.7407 19.2307C20.8002 19.2307 15.9837 14.4089 15.9837 8.46141C15.9837 6.83906 16.3421 5.29988 16.9843 3.92047C17.3787 3.07224 16.914 2 15.9837 2C8.26045 2 2 8.26788 2 16C2 23.7321 8.26045 30 15.9837 30C21.7926 30 26.7751 26.4539 28.8867 21.4065Z" fill="#FFD904"/>
<path d="M25.8124 2.5069C25.8769 2.33278 26.1231 2.33278 26.1876 2.5069L27.0484 4.83339C27.0687 4.88813 27.1119 4.93129 27.1666 4.95155L29.4931 5.81243C29.6672 5.87686 29.6672 6.12314 29.4931 6.18757L27.1666 7.04845C27.1119 7.06871 27.0687 7.11187 27.0484 7.16661L26.1876 9.4931C26.1231 9.66722 25.8769 9.66722 25.8124 9.4931L24.9516 7.16661C24.9313 7.11187 24.8881 7.06871 24.8334 7.04845L22.5069 6.18757C22.3328 6.12314 22.3328 5.87686 22.5069 5.81243L24.8334 4.95155C24.8881 4.93129 24.9313 4.88813 24.9516 4.83339L25.8124 2.5069Z" fill="#FFD904"/>
</svg>
