<svg width="32" height="32" viewBox="0 0 32 32" fill="none" xmlns="http://www.w3.org/2000/svg">
<path d="M5.81835 14.7C5.6512 14.7 5.48568 14.6664 5.33124 14.6011C5.17681 14.5358 5.03648 14.44 4.91828 14.3193C4.80007 14.1986 4.70631 14.0553 4.64234 13.8975C4.57836 13.7398 4.54544 13.5707 4.54544 13.4C4.54544 13.2293 4.57836 13.0602 4.64234 12.9025C4.70631 12.7447 4.80007 12.6014 4.91828 12.4807C5.03648 12.36 5.17681 12.2642 5.33124 12.1989C5.48568 12.1336 5.6512 12.1 5.81835 12.1H12.1819V14.7H5.81835ZM3.27291 19.9C3.10576 19.9 2.94024 19.8664 2.78581 19.8011C2.63137 19.7358 2.49104 19.64 2.37284 19.5193C2.25464 19.3986 2.16087 19.2553 2.0969 19.0975C2.03293 18.9398 2 18.7707 2 18.6C2 18.4293 2.03293 18.2602 2.0969 18.1025C2.16087 17.9447 2.25464 17.8014 2.37284 17.6807C2.49104 17.56 2.63137 17.4642 2.78581 17.3989C2.94024 17.3336 3.10576 17.3 3.27291 17.3H23.6364V19.9H3.27291ZM5.81835 25.1C5.4808 25.1 5.15708 24.963 4.9184 24.7192C4.67972 24.4754 4.54563 24.1448 4.54563 23.8C4.54563 23.4552 4.67972 23.1246 4.9184 22.8808C5.15708 22.637 5.4808 22.5 5.81835 22.5H9.63651C9.97405 22.5 10.2978 22.637 10.5365 22.8808C10.7751 23.1246 10.9092 23.4552 10.9092 23.8C10.9092 24.1448 10.7751 24.4754 10.5365 24.7192C10.2978 24.963 9.97405 25.1 9.63651 25.1H5.81835Z" fill="white"/>
<path d="M12.7012 5.60001C11.8549 5.60001 11.0887 5.91201 10.507 6.42291C10.0771 6.79819 9.75293 7.28372 9.56778 7.82951C9.51632 7.99432 9.43317 8.14699 9.32321 8.27856C9.21325 8.41013 9.07869 8.51796 8.92741 8.59574C8.77613 8.67351 8.61117 8.71966 8.44221 8.73148C8.27324 8.7433 8.10366 8.72056 7.94341 8.66459C7.78316 8.60861 7.63546 8.52053 7.50897 8.4055C7.38247 8.29048 7.27972 8.15082 7.20674 7.99471C7.13376 7.83861 7.09201 7.66919 7.08395 7.4964C7.07589 7.3236 7.10167 7.1509 7.15979 6.98841C7.49147 6.00471 8.07404 5.12918 8.84742 4.45212C9.9201 3.51192 11.2877 2.9966 12.7012 3.00002C15.8983 3.00002 18.5455 5.58701 18.5455 8.85001C18.5455 12.113 15.8983 14.7 12.7012 14.7H11.4285V12.1H12.7012C14.5543 12.1 16.0001 10.6128 16.0001 8.85001C16.0001 7.08721 14.5543 5.60001 12.7012 5.60001ZM24.1557 10.8C23.308 10.8 22.5431 11.112 21.9615 11.6229C21.5316 11.9982 21.2074 12.4837 21.0222 13.0295C20.908 13.349 20.6757 13.6099 20.3752 13.7565C20.0748 13.9031 19.73 13.9235 19.415 13.8135C19.0999 13.7034 18.8397 13.4716 18.69 13.1678C18.5403 12.864 18.5131 12.5124 18.6143 12.1884C18.946 11.2047 19.5285 10.3292 20.3019 9.65211C21.3746 8.71192 22.7422 8.1966 24.1557 8.20001C27.3527 8.20001 30 10.787 30 14.05C30 17.313 27.3527 19.9 24.1557 19.9H22.883V17.3H24.1557C26.0088 17.3 27.4546 15.8128 27.4546 14.05C27.4546 12.2872 26.0088 10.8 24.1557 10.8Z" fill="white"/>
<path d="M19.0648 26.4C18.2185 26.4 17.4523 26.088 16.8706 25.5771C16.4407 25.2019 16.1165 24.7163 15.9314 24.1705C15.8171 23.851 15.5848 23.59 15.2844 23.4435C14.9839 23.2969 14.6392 23.2765 14.3241 23.3865C14.0091 23.4966 13.7488 23.7284 13.5991 24.0321C13.4494 24.3359 13.4222 24.6876 13.5234 25.0116C13.8551 25.9953 14.4377 26.8708 15.211 27.5479C16.2837 28.4881 17.6513 29.0034 19.0648 29C22.2619 29 24.9091 26.413 24.9091 23.15C24.9091 19.887 22.2619 17.3 19.0648 17.3C18.8977 17.3 18.7321 17.3336 18.5777 17.3989C18.4233 17.4642 18.2829 17.56 18.1647 17.6807C18.0465 17.8014 17.9528 17.9447 17.8888 18.1025C17.8248 18.2602 17.7919 18.4293 17.7919 18.6C17.7919 18.7707 17.8248 18.9398 17.8888 19.0975C17.9528 19.2553 18.0465 19.3986 18.1647 19.5193C18.2829 19.64 18.4233 19.7358 18.5777 19.8011C18.7321 19.8664 18.8977 19.9 19.0648 19.9C20.9179 19.9 22.3637 21.3872 22.3637 23.15C22.3637 24.9128 20.9179 26.4 19.0648 26.4Z" fill="white"/>
</svg>
