<svg width="32" height="32" viewBox="0 0 32 32" fill="none" xmlns="http://www.w3.org/2000/svg">
<path d="M29.7516 12.448H28.2476C27.6236 12.448 27.1116 12.944 27.1116 13.584C27.1116 14.224 27.6236 14.72 28.2476 14.72H29.7516C30.3756 14.72 30.8876 14.224 30.8876 13.584C30.8876 12.944 30.3756 12.448 29.7516 12.448ZM14.5356 9.05596C14.9676 9.48796 15.7036 9.48796 16.1356 9.05596C16.5676 8.62396 16.5676 7.90396 16.1356 7.45596L15.0636 6.39996C14.6316 5.96796 13.8956 5.96796 13.4636 6.39996C13.0316 6.83196 13.0316 7.55196 13.4636 7.98396L14.5356 9.05596ZM27.9117 6.41596C27.4797 5.98396 26.7437 5.98396 26.3117 6.41596L25.2396 7.47196C24.8076 7.90396 24.8076 8.62396 25.2396 9.07196C25.6716 9.48796 26.3917 9.48796 26.8397 9.05596L27.9117 7.99996C28.3437 7.55196 28.3437 6.84796 27.9117 6.41596ZM20.6796 7.18396C21.3036 7.18396 21.8156 6.68796 21.8156 6.04796V4.54396C21.8156 3.91996 21.3036 3.40796 20.6796 3.40796C20.0556 3.40796 19.5436 3.90396 19.5436 4.54396V6.04796C19.5436 6.68796 20.0556 7.18396 20.6796 7.18396Z" fill="url(#paint0_linear_316_404)"/>
<path d="M18.0404 19.8078C18.4491 19.7492 18.8383 19.7101 19.2275 19.7101C20.8817 19.7101 23.4192 19.1792 24.7425 20C26.1243 18.7296 27 16.9316 27 14.8795C27 11.0684 23.9251 8 20.1497 8C17.4446 8 15.0898 9.58306 14 11.8893C16.4521 13.4137 17.3009 16.8958 18.0404 19.8078Z" fill="url(#paint1_linear_316_404)"/>
<path d="M22.5828 18.1967C25.5739 18.1967 28 20.6783 28 23.6397C28 26.4191 25.8398 28.7353 23.1145 29H5.23442C2.17685 28.5699 0 25.9062 0 22.7629C0 19.818 2.04392 17.3529 4.80237 16.6912C5.6997 13.4651 8.75727 11 12.2801 11C16.5341 11 19.8742 14.5404 19.8742 18.7261C19.8742 18.8254 19.8576 18.9081 19.8576 19.0239C20.6552 18.5607 21.5858 18.1967 22.5828 18.1967Z" fill="white"/>
<defs>
<linearGradient id="paint0_linear_316_404" x1="12.7983" y1="3.19042" x2="23.4469" y2="19.8975" gradientUnits="userSpaceOnUse">
<stop stop-color="#FEBE5E"/>
<stop offset="1" stop-color="#FE7D1B"/>
</linearGradient>
<linearGradient id="paint1_linear_316_404" x1="13.75" y1="7.76923" x2="26.1717" y2="21.2261" gradientUnits="userSpaceOnUse">
<stop stop-color="#FEBE5E"/>
<stop offset="1" stop-color="#FE7D1B"/>
</linearGradient>
</defs>
</svg>
