<svg width="32" height="32" viewBox="0 0 32 32" fill="none" xmlns="http://www.w3.org/2000/svg">
<path d="M15.2891 23.5736C15.2891 24.3871 14.5547 25.0498 13.6445 25.0498C12.7344 25.0498 12 24.3906 12 23.5736C12 22.7567 13.6445 21 13.6445 21C13.6445 21 15.2891 22.7602 15.2891 23.5736ZM20 23.5736C20 24.3871 19.2656 25.0498 18.3555 25.0498C17.4453 25.0498 16.7109 24.3906 16.7109 23.5736C16.7109 22.7567 18.3555 21 18.3555 21C18.3555 21 20 22.7602 20 23.5736ZM15.3438 29.5238C15.3438 30.3373 14.6094 31 13.6992 31C12.7891 31 12.0547 30.3408 12.0547 29.5238C12.0547 28.7069 13.6992 26.9502 13.6992 26.9502C13.6992 26.9502 15.3438 28.7104 15.3438 29.5238ZM20 29.5238C20 30.3373 19.2656 31 18.3555 31C17.4453 31 16.7109 30.3408 16.7109 29.5238C16.7109 28.7069 18.3555 26.9502 18.3555 26.9502C18.3555 26.9502 20 28.7104 20 29.5238Z" fill="#94B0FF"/>
<path d="M8.64453 25.0498C9.55469 25.0498 10.2891 24.3871 10.2891 23.5736C10.2891 22.7602 8.64453 21 8.64453 21C8.64453 21 7 22.7567 7 23.5736C7 24.3906 7.73438 25.0498 8.64453 25.0498Z" fill="#94B0FF"/>
<path d="M8.69922 31C9.60938 31 10.3438 30.3373 10.3438 29.5238C10.3438 28.7104 8.69922 26.9502 8.69922 26.9502C8.69922 26.9502 7.05469 28.7069 7.05469 29.5238C7.05469 30.3408 7.78906 31 8.69922 31Z" fill="#94B0FF"/>
<path d="M23.3555 25.0498C24.2656 25.0498 25 24.3871 25 23.5736C25 22.7602 23.3555 21 23.3555 21C23.3555 21 21.7109 22.7567 21.7109 23.5736C21.7109 24.3906 22.4453 25.0498 23.3555 25.0498Z" fill="#94B0FF"/>
<path d="M23.3555 31C24.2656 31 25 30.3373 25 29.5238C25 28.7104 23.3555 26.9502 23.3555 26.9502C23.3555 26.9502 21.7109 28.7069 21.7109 29.5238C21.7109 30.3408 22.4453 31 23.3555 31Z" fill="#94B0FF"/>
<path d="M24.5828 8.19669C27.5739 8.19669 30 10.6783 30 13.6397C30 16.4191 27.8398 18.7353 25.1145 19H7.23442C4.17685 18.5699 2 15.9062 2 12.7629C2 9.81802 4.04392 7.35294 6.80237 6.69118C7.6997 3.46507 10.7573 1 14.2801 1C18.5341 1 21.8742 4.54044 21.8742 8.7261C21.8742 8.82537 21.8576 8.90809 21.8576 9.0239C22.6552 8.56066 23.5858 8.19669 24.5828 8.19669Z" fill="white"/>
</svg>
