<svg width="32" height="32" viewBox="0 0 32 32" fill="none" xmlns="http://www.w3.org/2000/svg">
<path d="M24.5828 8.19669C27.5739 8.19669 30 10.6783 30 13.6397C30 16.4191 27.8398 18.7353 25.1145 19H7.23442C4.17685 18.5699 2 15.9062 2 12.7629C2 9.81802 4.04392 7.35294 6.80237 6.69118C7.6997 3.46507 10.7573 1 14.2801 1C18.5341 1 21.8742 4.54044 21.8742 8.7261C21.8742 8.82537 21.8576 8.90809 21.8576 9.0239C22.6552 8.56066 23.5858 8.19669 24.5828 8.19669Z" fill="white"/>
<path d="M23.9988 28.2274C23.9988 28.691 23.6969 29 23.2433 29H20.2208C19.7673 29 19.4654 28.691 19.4654 28.2274C19.4654 27.8414 19.7673 27.4554 20.2208 27.4554H23.2433C23.6969 27.4554 23.9988 27.7644 23.9988 28.2274ZM21.0616 24.228C20.6081 24.228 20.3055 24.537 20.3055 25C20.3055 25.463 20.6075 25.772 21.0616 25.772H23.2303C23.6838 25.772 23.9864 25.386 23.9864 25C23.9864 24.5364 23.6844 24.228 23.2303 24.228H21.0616ZM13.0876 25C13.0876 24.5364 13.3896 24.228 13.8431 24.228H18.074C18.5275 24.228 18.8295 24.537 18.8295 25C18.8295 25.386 18.5275 25.772 18.074 25.772H13.8431C13.3896 25.772 13.0876 25.463 13.0876 25ZM23.9994 21.7726C23.9994 22.2356 23.6217 22.5446 23.2439 22.5446H14.489C14.0355 22.5446 13.7336 22.2356 13.7336 21.7726C13.7336 21.386 14.0355 21 14.489 21H23.2445C23.698 21 24 21.309 24 21.772L23.9994 21.7726ZM8 21.7726C8 21.309 8.30255 21 8.75607 21H11.7786C12.2321 21 12.534 21.309 12.534 21.772C12.534 22.1586 12.2321 22.5446 11.7786 22.5446H8.75607C8.30255 22.5446 8 22.2356 8 21.7726Z" fill="white"/>
</svg>
